<svg width="226" height="181" viewBox="0 0 226 181" fill="none" xmlns="http://www.w3.org/2000/svg">
<path d="M91.9099 13.1739H84.2463C84.2463 13.1739 81.557 28.7082 74.257 35.246C67.3403 41.4396 54.393 39.7403 54.393 39.7403C54.393 39.7403 54.3881 39.7532 54.3819 39.773C49.3743 38.6781 43.663 38.9184 39.7696 39.7423C33.665 41.035 29.2552 43.2852 29.2552 43.2852C29.2552 43.2852 19.8353 48.0624 20.0596 57.1786C20.2334 64.2525 26.8482 72.6734 26.7964 73.2768C26.2147 80.0282 25.5639 79.7977 26.4427 82.2031C28.5736 88.0426 58.756 85.6342 59.2934 82.9578C59.7802 80.5296 58.3777 76.4695 59.0814 71.0098C60.1919 62.4019 62.3968 59.3378 64.9061 54.0294C78.7655 53.1264 87.7219 46.8429 90.5086 36.7504C93.384 26.3384 91.9112 13.1729 91.9112 13.1729L91.9099 13.1739Z" fill="white"/>
<path d="M41.2342 86.0238C34.0192 86.0238 27.1949 85.0495 26.1781 82.2643C25.6001 80.6788 25.6728 80.1684 25.9439 78.2655C26.1004 77.1735 26.3137 75.6781 26.522 73.2608C26.5022 73.1322 26.0684 72.4379 25.6087 71.703C23.7612 68.7486 19.9171 62.6006 19.7852 57.1825C19.5609 48.0474 29.0128 43.1466 29.109 43.0981C29.1521 43.0753 33.6236 40.8153 39.6997 39.5285C43.2579 38.7749 48.9495 38.3842 54.3133 39.5285C54.3528 39.5186 54.3947 39.5157 54.4378 39.5216C54.566 39.5384 67.3198 41.1279 74.0541 35.0975C81.2161 28.6844 83.9497 13.2964 83.9756 13.1421C83.9941 13.0333 84.11 12.9522 84.2468 12.9522H91.9104C92.0521 12.9522 92.1704 13.0392 92.1827 13.152C92.1975 13.2835 93.6272 26.4708 90.7753 36.7967C87.927 47.1078 78.8127 53.2964 65.1001 54.236C64.6823 55.1153 64.2731 55.9333 63.8774 56.7265C61.94 60.6066 60.265 63.9566 59.353 71.0314C58.9561 74.1094 59.2359 76.7611 59.4602 78.8916C59.6377 80.5809 59.7782 81.9142 59.5625 82.9913C59.2334 84.6331 51.0472 85.636 45.6243 85.91C44.1761 85.9832 42.6971 86.0228 41.2354 86.0228L41.2342 86.0238ZM47.1144 39.2595C44.2747 39.2595 41.6865 39.5622 39.8378 39.9538C33.8479 41.2218 29.4442 43.4472 29.4011 43.47C29.3074 43.5175 20.1143 48.2927 20.3324 57.1735C20.463 62.4918 24.269 68.5805 26.098 71.5062C26.8486 72.7059 27.0852 73.0946 27.068 73.2914C26.8584 75.7186 26.644 77.22 26.4887 78.3159C26.22 80.1952 26.1571 80.6412 26.7044 82.1407C27.837 85.2444 37.586 85.8754 45.5898 85.4718C53.3976 85.0782 58.8378 83.8359 59.0214 82.922C59.226 81.8983 59.0818 80.5225 58.9142 78.9291C58.6874 76.7799 58.4064 74.1064 58.8082 70.9859C59.7289 63.8508 61.4149 60.4731 63.3684 56.5633C63.7825 55.7335 64.2114 54.8759 64.649 53.9512C64.6859 53.872 64.7771 53.8166 64.8831 53.8097C78.4319 52.9275 87.4377 46.8516 90.2403 36.7018C92.8816 27.1384 91.8241 15.0856 91.6577 13.3914H84.4822C84.142 15.1915 81.2949 29.2699 74.4608 35.3903C67.9163 41.2505 55.9353 40.1309 54.4908 39.9716C54.4353 39.9914 54.3725 39.9964 54.3084 39.9825C51.9223 39.4603 49.4351 39.2585 47.1144 39.2585V39.2595Z" fill="black"/>
<path d="M187.45 170.255H53.6686C49.5139 170.255 46.3489 167.203 47.0132 163.84L75.7856 18.2561C76.3143 15.5787 79.1343 13.6115 82.441 13.6115H216.223C220.377 13.6115 223.542 16.6627 222.878 20.0256L194.106 165.609C193.577 168.286 190.757 170.254 187.45 170.254V170.255Z" stroke="white" stroke-miterlimit="10"/>
<path d="M187.451 170.474H53.669C51.6415 170.474 49.7139 169.756 48.3816 168.504C47.0061 167.211 46.4084 165.498 46.7436 163.806L75.5148 18.2215C76.0682 15.4224 78.9806 13.3909 82.4402 13.3909H216.222C218.249 13.3909 220.177 14.1089 221.509 15.3611C222.885 16.6538 223.482 18.3669 223.147 20.0592L194.375 165.642C193.821 168.442 190.909 170.473 187.449 170.473L187.451 170.474ZM82.4414 13.831C79.2529 13.831 76.5673 15.7063 76.0571 18.2907L47.2847 163.874C46.9753 165.44 47.5275 167.023 48.7982 168.218C50.027 169.372 51.8017 170.034 53.669 170.034H187.451C190.639 170.034 193.325 168.159 193.835 165.574L222.607 19.9909C222.917 18.4252 222.364 16.8417 221.094 15.6469C219.865 14.4927 218.09 13.831 216.223 13.831H82.4414Z" fill="black"/>
<path d="M183.199 169.876H49.4176C45.2629 169.876 42.0979 166.829 42.7622 163.473L71.5334 18.1415C72.0621 15.4691 74.8821 13.5048 78.1888 13.5048H211.97C216.125 13.5048 219.29 16.5511 218.626 19.908L189.853 165.239C189.325 167.912 186.505 169.876 183.198 169.876H183.199Z" stroke="white" stroke-miterlimit="10"/>
<path d="M183.2 170.096H49.4179C47.3868 170.096 45.4592 169.378 44.1256 168.125C42.7526 166.835 42.1573 165.127 42.4913 163.439L71.2638 18.1069C71.8171 15.3128 74.7295 13.2852 78.1891 13.2852H211.971C214.002 13.2852 215.931 14.0032 217.263 15.2564C218.636 16.5461 219.231 18.2542 218.897 19.9426L190.125 165.274C189.571 168.068 186.659 170.095 183.2 170.095V170.096ZM78.1891 13.7243C75.0007 13.7243 72.3151 15.5966 71.8048 18.1761L43.0324 163.507C42.723 165.068 43.274 166.646 44.5422 167.839C45.771 168.995 47.5482 169.656 49.4179 169.656H183.2C186.388 169.656 189.074 167.784 189.584 165.204L218.356 19.8734C218.666 18.3126 218.115 16.734 216.846 15.5412C215.618 14.386 213.84 13.7243 211.971 13.7243H78.1891Z" fill="black"/>
<path d="M161.325 27.0017H122.545C116.346 27.0017 111.637 22.445 112.67 17.4473L113.576 13.0667C113.668 12.6226 114.139 12.2972 114.69 12.2972H174.422C175.121 12.2972 175.654 12.8115 175.537 13.3753L174.618 17.8142C173.522 23.1196 167.903 27.0027 161.324 27.0027L161.325 27.0017Z" stroke="white" stroke-miterlimit="10"/>
<path d="M161.325 27.2213H122.545C119.552 27.2213 116.714 26.16 114.758 24.3085C112.746 22.4045 111.887 19.8903 112.4 17.4117L113.306 13.0311C113.421 12.4782 114.002 12.0776 114.69 12.0776H174.423C174.832 12.0776 175.22 12.222 175.486 12.4752C175.76 12.7334 175.876 13.0746 175.807 13.4119L174.888 17.8508C173.766 23.2808 168.06 27.2223 161.324 27.2223L161.325 27.2213ZM114.69 12.5168C114.271 12.5168 113.916 12.7631 113.846 13.1033L112.94 17.4839C112.453 19.8359 113.268 22.2196 115.176 24.0246C117.027 25.7773 119.712 26.7821 122.545 26.7821H161.325C167.793 26.7821 173.271 22.995 174.35 17.7777L175.268 13.3387C175.311 13.13 175.238 12.9183 175.07 12.7591C174.907 12.6048 174.672 12.5168 174.424 12.5168H114.691H114.69Z" fill="black"/>
<path d="M135.218 21.8853H151.778C152.407 21.8853 152.941 21.552 153.043 21.0426L155.312 9.20247C156.221 4.48954 151.785 0.219727 145.973 0.219727C141.324 0.219727 137.365 2.98319 136.636 6.75254L133.953 20.7093C133.826 21.3492 134.427 21.8853 135.217 21.8853H135.218ZM141.993 7.5161L142.012 7.42708C142.325 5.89996 143.934 4.78132 145.821 4.78132C148.211 4.78132 150.027 6.54384 149.631 8.47847L149.613 8.56748C149.299 10.0946 147.69 11.2132 145.803 11.2132C143.414 11.2132 141.598 9.45072 141.993 7.5161Z" fill="white"/>
<path d="M151.78 22.1049H135.22C134.756 22.1049 134.321 21.9466 134.027 21.6707C133.739 21.3997 133.614 21.0367 133.686 20.6747L136.368 6.71888C137.122 2.8259 141.162 0.00012207 145.976 0.00012207C148.778 0.00012207 151.443 0.99216 153.29 2.72106C155.201 4.51127 156.038 6.88603 155.585 9.23507L153.316 21.0752C153.196 21.6815 152.565 22.1039 151.78 22.1039V22.1049ZM145.975 0.439269C141.433 0.439269 137.62 3.10877 136.907 6.78614L134.224 20.7419C134.178 20.9813 134.254 21.2088 134.441 21.3848C134.631 21.5628 134.913 21.6647 135.218 21.6647H151.777C152.286 21.6647 152.696 21.3947 152.771 21.008L155.04 9.16881C155.469 6.94636 154.679 4.70019 152.871 3.00789C151.128 1.37592 148.614 0.440258 145.972 0.440258L145.975 0.439269ZM145.804 11.4328C144.603 11.4328 143.464 11.0065 142.679 10.2637C141.867 9.49619 141.519 8.48239 141.724 7.48046L141.743 7.39145C142.078 5.75157 143.793 4.56172 145.822 4.56172C147.021 4.56172 148.161 4.988 148.946 5.7308C149.759 6.49832 150.106 7.51211 149.902 8.51404L149.884 8.60207C149.549 10.2419 147.832 11.4328 145.805 11.4328H145.804ZM142.264 7.55168C142.085 8.42601 142.388 9.31024 143.096 9.97885C143.777 10.6227 144.765 10.9927 145.802 10.9927C147.561 10.9927 149.05 9.9571 149.342 8.53086L149.359 8.44283C149.538 7.56849 149.235 6.68327 148.527 6.01466C147.846 5.37078 146.859 5.00086 145.821 5.00086C144.062 5.00086 142.573 6.03642 142.281 7.46266L142.263 7.55168H142.264Z" fill="black"/>
<path d="M160.906 52.5802C161.283 52.9343 161.447 53.4041 161.355 53.868L149.759 112.789C149.607 113.556 148.81 114.113 147.861 114.113H142.252C141.697 114.113 141.168 113.917 140.804 113.574C140.427 113.22 140.263 112.75 140.354 112.286L151.948 53.3655C152.099 52.598 152.897 52.0411 153.846 52.0411H159.457C160.013 52.0411 160.541 52.238 160.906 52.5802Z" fill="white"/>
<path d="M141.388 67.702C141.765 68.0551 141.93 68.5229 141.842 68.9858L133.423 112.783C133.275 113.553 132.476 114.113 131.525 114.113H125.913C125.358 114.113 124.832 113.917 124.467 113.576C124.09 113.223 123.925 112.755 124.014 112.292L132.429 68.4952C132.577 67.7247 133.376 67.1649 134.328 67.1649H139.942C140.496 67.1649 141.023 67.3608 141.388 67.702Z" fill="white"/>
<path d="M86.0313 99.7071C86.4085 100.055 86.5773 100.519 86.496 100.979L84.4131 112.763C84.2763 113.533 83.4591 114.113 82.5101 114.113H76.89C76.3403 114.113 75.8165 113.92 75.4516 113.583C75.0757 113.235 74.9056 112.772 74.9882 112.311L77.0687 100.527C77.2042 99.7575 78.0226 99.1769 78.9716 99.1769H84.5942C85.1427 99.1769 85.6677 99.3698 86.0313 99.7071Z" fill="white"/>
<path d="M104.461 90.39C104.838 90.7441 105.003 91.2129 104.912 91.6768L100.768 112.788C100.617 113.556 99.8194 114.113 98.8703 114.113H93.2601C92.7054 114.113 92.1779 113.917 91.8131 113.574C91.436 113.22 91.2721 112.751 91.362 112.287L95.5032 91.1763C95.6548 90.4078 96.4522 89.85 97.4012 89.85H103.014C103.569 89.85 104.096 90.0468 104.461 90.39Z" fill="white"/>
<path d="M122.927 79.0457C123.303 79.3988 123.468 79.8676 123.378 80.3305L117.095 112.785C116.946 113.554 116.148 114.113 115.197 114.113H109.585C109.032 114.113 108.504 113.917 108.139 113.575C107.762 113.222 107.597 112.754 107.687 112.29L113.968 79.8369C114.117 79.0665 114.916 78.5076 115.866 78.5076H121.48C122.035 78.5076 122.561 78.7035 122.927 79.0457Z" fill="white"/>
<path d="M161.322 52.2942C161.804 52.7472 162.012 53.3456 161.896 53.9361L150.3 112.857C150.106 113.84 149.081 114.553 147.861 114.553H142.252C141.536 114.553 140.856 114.3 140.387 113.86C139.906 113.408 139.697 112.81 139.813 112.218L151.407 53.2971C151.6 52.314 152.625 51.6009 153.846 51.6009H159.457C160.173 51.6009 160.852 51.8541 161.322 52.2942ZM161.355 53.8678C161.446 53.404 161.282 52.9342 160.905 52.5801C160.54 52.2378 160.013 52.041 159.457 52.041H153.846C152.897 52.041 152.099 52.5979 151.948 53.3654L140.354 112.286C140.262 112.75 140.426 113.22 140.803 113.574C141.168 113.917 141.697 114.113 142.252 114.113H147.861C148.81 114.113 149.607 113.556 149.759 112.789L161.355 53.8678Z" fill="black"/>
<path d="M131.888 68.4287C132.078 67.4416 133.103 66.7245 134.328 66.7245H139.942C140.656 66.7245 141.335 66.9768 141.803 67.4159C142.285 67.8659 142.496 68.4623 142.382 69.0528L133.965 112.85C133.775 113.836 132.748 114.553 131.524 114.553H125.913C125.199 114.553 124.52 114.301 124.05 113.862C123.57 113.412 123.359 112.815 123.472 112.225L131.888 68.4287ZM134.328 67.1647C133.375 67.1647 132.577 67.7245 132.429 68.495L124.013 112.292C123.925 112.755 124.09 113.223 124.467 113.576C124.832 113.917 125.358 114.113 125.913 114.113H131.524C132.476 114.113 133.274 113.553 133.422 112.783L141.841 68.9856C141.93 68.5227 141.765 68.0548 141.388 67.7018C141.023 67.3605 140.496 67.1647 139.942 67.1647H134.328Z" fill="black"/>
<path d="M123.342 78.7598C123.824 79.2109 124.033 79.8083 123.92 80.3987L117.637 112.852C117.446 113.837 116.419 114.553 115.196 114.553H109.585C108.871 114.553 108.192 114.301 107.723 113.862C107.242 113.411 107.031 112.814 107.146 112.223L113.427 79.7697C113.618 78.7836 114.643 78.0685 115.866 78.0685H121.48C122.195 78.0685 122.872 78.3197 123.342 78.7598ZM123.378 80.3305C123.468 79.8676 123.303 79.3988 122.927 79.0457C122.561 78.7035 122.034 78.5076 121.48 78.5076H115.866C114.915 78.5076 114.117 79.0665 113.968 79.8369L107.687 112.29C107.597 112.754 107.762 113.222 108.139 113.575C108.504 113.917 109.032 114.113 109.585 114.113H115.196C116.148 114.113 116.945 113.554 117.094 112.785L123.378 80.3305Z" fill="black"/>
<path d="M95.5035 91.1768L91.3623 112.288C91.2724 112.751 91.4363 113.22 91.8134 113.574C92.1783 113.918 92.7058 114.113 93.2604 114.113H98.8707C99.8197 114.113 100.617 113.557 100.769 112.788L104.912 91.6773C105.004 91.2134 104.838 90.7446 104.461 90.3905C104.096 90.0473 103.569 89.8505 103.014 89.8505H97.4015C96.4525 89.8505 95.6551 90.4083 95.5035 91.1768ZM94.9624 91.1086C95.1559 90.1254 96.1814 89.4113 97.4015 89.4113H103.014C103.729 89.4113 104.408 89.6635 104.878 90.1047C105.36 90.5567 105.569 91.1551 105.453 91.7455L101.31 112.856C101.116 113.839 100.091 114.553 98.8707 114.553H93.2604C92.5455 114.553 91.8664 114.3 91.3969 113.86C90.915 113.408 90.7054 112.81 90.8213 112.219L94.9624 91.1086Z" fill="black"/>
<path d="M86.446 99.4196C86.9267 99.8637 87.1423 100.454 87.0388 101.041L84.9559 112.825C84.7809 113.811 83.7308 114.553 82.5107 114.553H76.8905C76.1818 114.553 75.5077 114.305 75.0393 113.872C74.5586 113.428 74.3417 112.836 74.4453 112.25L76.5269 100.466C76.7007 99.481 77.752 98.7372 78.9722 98.7372H84.5948C85.3022 98.7372 85.9776 98.9864 86.446 99.4196ZM86.4965 100.979C86.5779 100.519 86.409 100.056 86.0319 99.7075C85.6683 99.3702 85.1432 99.1773 84.5948 99.1773H78.9722C78.0232 99.1773 77.2048 99.7579 77.0692 100.527L74.9888 112.311C74.9062 112.772 75.0763 113.235 75.4522 113.583C75.817 113.92 76.3408 114.113 76.8905 114.113H82.5107C83.4597 114.113 84.2768 113.534 84.4136 112.763L86.4965 100.979Z" fill="black"/>
<path d="M74.472 130.21C72.4149 130.21 70.7412 128.843 70.7412 127.164C70.7412 125.484 72.4149 124.118 74.472 124.118C76.529 124.118 78.2027 125.484 78.2027 127.164C78.2027 128.843 76.529 130.21 74.472 130.21ZM74.472 124.557C72.7169 124.557 71.2884 125.726 71.2884 127.164C71.2884 128.602 72.7169 129.771 74.472 129.771C76.227 129.771 77.6555 128.602 77.6555 127.164C77.6555 125.726 76.227 124.557 74.472 124.557Z" fill="black"/>
<path d="M71.5169 141.86C69.4599 141.86 67.7861 140.494 67.7861 138.814C67.7861 137.135 69.4599 135.768 71.5169 135.768C73.5739 135.768 75.2476 137.135 75.2476 138.814C75.2476 140.494 73.5739 141.86 71.5169 141.86ZM71.5169 136.207C69.7618 136.207 68.3334 137.376 68.3334 138.814C68.3334 140.252 69.7618 141.421 71.5169 141.421C73.2719 141.421 74.7004 140.252 74.7004 138.814C74.7004 137.376 73.2719 136.207 71.5169 136.207Z" fill="black"/>
<path d="M68.9114 154.078C66.8544 154.078 65.1807 152.712 65.1807 151.032C65.1807 149.353 66.8544 147.986 68.9114 147.986C70.9684 147.986 72.6421 149.353 72.6421 151.032C72.6421 152.712 70.9684 154.078 68.9114 154.078ZM68.9114 148.425C67.1563 148.425 65.7279 149.594 65.7279 151.032C65.7279 152.47 67.1563 153.639 68.9114 153.639C70.6665 153.639 72.0949 152.47 72.0949 151.032C72.0949 149.594 70.6665 148.425 68.9114 148.425Z" fill="black"/>
<path d="M121.555 127.383H84.548C84.3964 127.383 84.2744 127.285 84.2744 127.164C84.2744 127.042 84.3964 126.944 84.548 126.944H121.555C121.706 126.944 121.828 127.043 121.828 127.164C121.828 127.284 121.705 127.383 121.555 127.383Z" fill="black"/>
<path d="M119.237 138.939H115.386C115.234 138.939 115.112 138.841 115.112 138.719C115.112 138.597 115.234 138.499 115.386 138.499H119.237C119.389 138.499 119.511 138.598 119.511 138.719C119.511 138.84 119.389 138.939 119.237 138.939Z" fill="white"/>
<path d="M108.35 138.939H82.2306C82.0791 138.939 81.957 138.841 81.957 138.719C81.957 138.597 82.0791 138.499 82.2306 138.499H108.35C108.501 138.499 108.623 138.598 108.623 138.719C108.623 138.84 108.5 138.939 108.35 138.939Z" fill="black"/>
<path d="M116.227 150.873H79.2199C79.0683 150.873 78.9463 150.774 78.9463 150.653C78.9463 150.533 79.0683 150.434 79.2199 150.434H116.227C116.378 150.434 116.5 150.532 116.5 150.653C116.5 150.775 116.377 150.873 116.227 150.873Z" fill="black"/>
<path d="M77.0156 73.8085C77.0156 73.8085 82.5495 73.7432 85.4409 72.7353C88.3323 71.7285 88.288 73.4752 87.4696 74.0894C86.8065 74.5879 82.8108 76.3751 79.2279 76.5838L77.0156 73.8075V73.8085Z" fill="white"/>
<path d="M79.2296 76.8032C79.1372 76.8032 79.0497 76.7656 78.9991 76.7023L76.7868 73.9259C76.7326 73.8587 76.7289 73.7736 76.7757 73.7034C76.8226 73.6332 76.9138 73.5887 77.0124 73.5877C77.0666 73.5877 82.5253 73.5105 85.3329 72.5333C87.1114 71.9142 87.788 72.3237 88.0333 72.6233C88.4351 73.1139 88.1577 73.8745 87.6586 74.2504C86.8932 74.825 82.8124 76.5964 79.2506 76.8032C79.2444 76.8032 79.237 76.8032 79.2308 76.8032H79.2296ZM77.5078 74.0169L79.3713 76.3541C82.8815 76.1039 86.7305 74.3443 87.2839 73.9289C87.6167 73.6787 87.8163 73.1594 87.5748 72.8647C87.3184 72.5511 86.5814 72.5778 85.551 72.9369C83.1156 73.7855 78.9363 73.9764 77.5078 74.0169Z" fill="black"/>
<path d="M68.9453 72.1432L71.6901 67.7923L74.2364 68.9802C74.3769 69.0455 74.4964 69.1374 74.5852 69.2462L74.7454 69.445C74.9463 69.6943 75.3 69.8387 75.6661 69.8209C75.8645 69.811 76.0629 69.8486 76.2367 69.9297L95.1702 78.7443C95.3267 78.8165 95.4697 78.9055 95.5979 79.0084L99.5085 82.1635L94.2902 81.4336C94.0055 81.394 93.7282 81.3248 93.4656 81.2268L73.6596 73.8889C73.4907 73.8266 73.3453 73.7277 73.2405 73.6041L73.2146 73.5734C73.0125 73.336 72.6699 73.1995 72.3174 73.2144L72.1387 73.2223C71.9748 73.2292 71.8108 73.2035 71.6605 73.1481L68.9465 72.1432H68.9453Z" fill="white"/>
<path d="M99.5074 82.384C99.4914 82.384 99.4753 82.3831 99.4606 82.3811L94.2422 81.6511C93.9353 81.6076 93.6346 81.5325 93.3499 81.4276L73.5438 74.0897C73.3293 74.0106 73.1469 73.886 73.0126 73.7297L72.9867 73.698C72.8388 73.5249 72.5899 73.4241 72.3298 73.4349L72.1511 73.4428C71.944 73.4517 71.7345 73.4191 71.5435 73.3489L68.8295 72.344C68.7617 72.3193 68.71 72.2728 68.6853 72.2164C68.6607 72.16 68.6656 72.0977 68.7001 72.0453L71.4449 67.6944C71.4794 67.64 71.5398 67.6004 71.6113 67.5826C71.6827 67.5658 71.7616 67.5727 71.8269 67.6034L74.3733 68.7912C74.5507 68.8733 74.7023 68.99 74.8133 69.1285L74.9735 69.3273C75.1214 69.5113 75.3814 69.6161 75.6464 69.6033C75.9003 69.5904 76.1505 69.6389 76.3724 69.7417L95.3058 78.5563C95.4821 78.6384 95.646 78.7393 95.7902 78.856L99.7009 82.0112C99.7847 82.0794 99.8044 82.1833 99.749 82.2673C99.7009 82.3405 99.6072 82.386 99.5062 82.386L99.5074 82.384ZM72.368 72.9948C72.7907 72.9948 73.1962 73.1659 73.439 73.4508L73.4649 73.4814C73.5426 73.5724 73.6486 73.6446 73.773 73.6901L93.5791 81.028C93.8207 81.117 94.0758 81.1813 94.3359 81.2179L98.705 81.8292L95.402 79.1646C95.291 79.0756 95.1666 78.9985 95.031 78.9352L76.0975 70.1206C75.9693 70.0612 75.8251 70.0335 75.6809 70.0404C75.2138 70.0642 74.7689 69.8812 74.5138 69.5647L74.3535 69.3659C74.2895 69.2858 74.2007 69.2185 74.0972 69.1701L71.8023 68.0999L69.3164 72.0394L71.7715 72.9493C71.8812 72.9899 72.0007 73.0086 72.1203 73.0037L72.299 72.9958C72.3212 72.9958 72.3446 72.9948 72.3668 72.9948H72.368Z" fill="black"/>
<path d="M94.6306 80.424C94.5936 80.424 94.5566 80.4181 94.5209 80.4052C94.3828 80.3567 94.32 80.2262 94.3804 80.1154L95.1026 78.7999C95.163 78.6892 95.3257 78.6387 95.4637 78.6872C95.6018 78.7356 95.6646 78.8662 95.6042 78.977L94.882 80.2924C94.8364 80.3745 94.7366 80.424 94.6318 80.424H94.6306Z" fill="black"/>
<path d="M67.2873 65.8707L71.4088 67.654C71.6195 67.745 71.7009 67.9566 71.5899 68.1277L69.1718 71.8506C69.0584 72.0247 68.791 72.0909 68.5765 71.998L64.4637 70.2186C63.6392 69.8616 63.3126 69.0446 63.7365 68.3928L65.0282 66.4048C65.4509 65.753 66.4628 65.5146 67.2886 65.8717L67.2873 65.8707Z" fill="black"/>
<path d="M68.7805 72.2601C68.6647 72.2601 68.5488 72.2373 68.4441 72.1918L64.3312 70.4125C63.3761 69.999 63.0002 69.0476 63.4907 68.2919L64.7823 66.3039C65.0177 65.9419 65.4171 65.6758 65.9051 65.5551C66.408 65.4315 66.9441 65.475 67.4149 65.6788L71.5364 67.4621C71.8778 67.6094 72.0096 67.9546 71.8297 68.2306L69.4116 71.9534C69.3228 72.0899 69.1725 72.1908 68.9888 72.2353C68.9198 72.2521 68.8495 72.261 68.7793 72.261L68.7805 72.2601ZM66.477 65.9241C66.339 65.9241 66.2022 65.9409 66.0678 65.9735C65.7203 66.0596 65.4368 66.2475 65.2692 66.5056L63.9775 68.4937C63.6238 69.0387 63.8999 69.7251 64.5925 70.0248L68.7054 71.8041C68.7448 71.8209 68.7879 71.8249 68.8311 71.814C68.873 71.8031 68.9075 71.7804 68.9284 71.7487L71.3466 68.0258C71.3885 67.9616 71.3577 67.8814 71.2788 67.8478L67.1573 66.0645C66.9429 65.9715 66.71 65.9251 66.477 65.9251V65.9241Z" fill="black"/>
<path d="M73.3063 72.7912C73.2631 72.7912 73.2188 72.7833 73.1769 72.7655C73.0438 72.7081 72.9932 72.5746 73.0647 72.4678L74.4303 70.4214C74.5018 70.3145 74.6669 70.274 74.8013 70.3314C74.9344 70.3887 74.9849 70.5223 74.9134 70.6291L73.5478 72.6755C73.4985 72.7496 73.4036 72.7912 73.3063 72.7912Z" fill="black"/>
<path d="M82.1885 74.3538C82.1429 74.3538 82.0973 74.3449 82.0541 74.3261L76.4093 71.7832C76.2775 71.7238 76.2306 71.5893 76.3046 71.4835C76.3785 71.3776 76.5449 71.3401 76.678 71.3994L82.3228 73.9423C82.4547 74.0017 82.5015 74.1362 82.4276 74.242C82.3771 74.3142 82.2846 74.3538 82.1885 74.3538Z" fill="black"/>
<path d="M93.3636 79.5864C93.3179 79.5864 93.2723 79.5775 93.2304 79.5587L91.0255 78.5746C90.8936 78.5152 90.8456 78.3817 90.9195 78.2759C90.9935 78.17 91.1599 78.1315 91.2917 78.1908L93.4967 79.1749C93.6285 79.2343 93.6766 79.3678 93.6027 79.4736C93.5521 79.5458 93.4597 79.5864 93.3636 79.5864Z" fill="black"/>
<path d="M68.3724 70.709C68.3281 70.709 68.2825 70.7001 68.2406 70.6823L65.0916 69.2966C64.9584 69.2382 64.9104 69.1047 64.9831 68.9979C65.0558 68.8911 65.2222 68.8525 65.3553 68.9109L68.5043 70.2965C68.6374 70.3549 68.6855 70.4884 68.6128 70.5952C68.5635 70.6684 68.4686 70.709 68.3724 70.709Z" fill="white"/>
<path d="M67.0371 75.5471C67.0371 75.5471 71.9337 76.1049 75.2368 74.0575C78.0457 72.3158 83.7348 77.3007 84.2241 77.9337C84.9168 78.8298 83.3922 80.2373 81.6322 79.4401C81.6322 79.4401 81.1663 81.6615 77.3678 82.0344C73.5693 82.4073 71.9485 80.4103 70.9293 80.1126C69.91 79.8149 66.9902 79.7981 66.9902 79.7981L67.0371 75.5471Z" fill="white"/>
<path d="M76.4355 82.3004C74.0999 82.3004 72.6825 81.4073 71.7064 80.7921C71.3589 80.5735 71.0594 80.3836 70.8338 80.3183C69.87 80.0364 67.0156 80.0176 66.9872 80.0176C66.9145 80.0176 66.8455 79.9939 66.7937 79.9523C66.7432 79.9108 66.7148 79.8544 66.7148 79.7961L66.7617 75.545C66.7617 75.4817 66.7974 75.4214 66.8566 75.3809C66.9157 75.3393 66.9946 75.3205 67.0735 75.3294C67.1216 75.3344 71.8975 75.8487 75.0674 73.8834C75.6615 73.5145 76.4047 73.3918 77.2773 73.5184C80.3117 73.9586 84.0658 77.3155 84.454 77.8179C84.825 78.2976 84.7018 78.9306 84.1472 79.3935C83.6788 79.7852 82.8074 80.0859 81.803 79.7525C81.5269 80.3915 80.5384 81.9443 77.398 82.2529C77.0603 82.2856 76.7399 82.3014 76.4342 82.3014L76.4355 82.3004ZM67.2658 79.5804C68.0274 79.5923 70.1486 79.6487 71.0224 79.9049C71.3293 79.9949 71.6448 80.1937 72.0454 80.4459C73.0782 81.0967 74.6373 82.0798 77.3327 81.8148C80.8687 81.4676 81.342 79.4855 81.3605 79.4014C81.3753 79.3312 81.4332 79.2709 81.5133 79.2402C81.5947 79.2095 81.6883 79.2125 81.7648 79.2471C82.6238 79.6368 83.3547 79.4202 83.7528 79.0879C84.067 78.8248 84.2618 78.4025 83.9894 78.0484C83.6628 77.626 80.0208 74.3621 77.1811 73.9497C76.4589 73.8448 75.8759 73.9368 75.4026 74.2296C72.4903 76.0346 68.4563 75.8793 67.3077 75.7913L67.2658 79.5795V79.5804Z" fill="black"/>
<path d="M33.7666 43.9467C33.7666 43.9467 27.0594 46.2117 23.5184 55.4308C21.5637 60.5186 21.9224 67.7744 31.5616 77.4198C33.4893 79.3485 36.197 81.2673 39.2548 81.5452L68.5498 81.7737L68.4192 74.2479C68.4192 74.2479 45.7008 71.8791 42.2855 70.8484C39.261 69.9355 34.8807 58.0518 34.4247 52.2213L33.7666 43.9477V43.9467Z" fill="white"/>
<path d="M68.5494 81.9924H68.547L39.252 81.764C39.2421 81.764 39.2335 81.764 39.2236 81.763C35.886 81.4603 33.0981 79.3091 31.348 77.5574C30.309 76.5179 29.3082 75.4656 28.3716 74.428C28.2828 74.3301 28.3099 74.1926 28.4319 74.1214C28.554 74.0502 28.7253 74.072 28.814 74.1709C29.7458 75.2025 30.7416 76.2499 31.7745 77.2835C33.458 78.9679 36.1239 81.036 39.2704 81.3268L68.2709 81.5533L68.1476 74.4429C65.5939 74.1748 45.4464 72.0394 42.189 71.0563C39.4689 70.2353 36.2533 61.9875 34.9358 56.6722C34.9062 56.5535 35.0023 56.4378 35.1515 56.4141C35.2994 56.3903 35.4436 56.4675 35.4732 56.5872C36.9891 62.7085 40.1997 69.9871 42.3812 70.6458C45.7274 71.6557 68.2265 74.0096 68.4533 74.0324C68.5889 74.0462 68.6899 74.1382 68.6924 74.247L68.823 81.7729C68.823 81.8322 68.7947 81.8896 68.7429 81.9311C68.6912 81.9727 68.6221 81.9954 68.5494 81.9954V81.9924Z" fill="black"/>
<path d="M93.4536 14.0314C93.795 14.7445 94.4631 16.6633 93.3612 17.9491C92.374 19.1023 90.3108 19.1488 89.1399 18.1133C88.5262 17.5703 88.2279 16.6831 87.7682 15.4309C87.5426 14.8157 87.2062 14.3914 86.8352 14.0096C86.5924 13.7604 86.2214 13.615 85.827 13.614L82.3428 13.6001C82.3428 13.6001 82.3699 12.5112 83.3842 12.075C84.2716 11.6932 86.5677 12.0077 86.7477 11.7911C88.7554 9.3689 92.0819 11.1631 93.4536 14.0324V14.0314Z" fill="white"/>
<path d="M91.2011 19.0726C90.3433 19.0726 89.5274 18.7818 88.9371 18.2606C88.3171 17.7126 88.0115 16.8759 87.5875 15.7157L87.5049 15.4922C87.2781 14.874 86.9293 14.4645 86.6187 14.144C86.4277 13.9472 86.1381 13.8335 85.825 13.8325L82.3408 13.8186C82.2681 13.8186 82.1978 13.7949 82.146 13.7524C82.0943 13.7098 82.0672 13.6535 82.0684 13.5941C82.0696 13.5447 82.1115 12.3706 83.2541 11.8791C83.8235 11.6338 84.8279 11.6437 85.634 11.6516C85.9803 11.6546 86.4068 11.6595 86.5497 11.6298C87.479 10.5339 88.571 10.3816 89.3278 10.4489C91.0187 10.5992 92.7787 12.0067 93.708 13.9512C93.9114 14.3775 94.8641 16.5801 93.586 18.0716C93.0856 18.6552 92.2919 19.0182 91.407 19.0657C91.3379 19.0696 91.2689 19.0716 91.1999 19.0716L91.2011 19.0726ZM82.6477 13.3805L85.8275 13.3933C86.3094 13.3953 86.7555 13.5704 87.0501 13.874C87.3927 14.2261 87.7773 14.6801 88.0299 15.3685L88.1125 15.593C88.5155 16.6959 88.8076 17.493 89.3425 17.9658C89.8664 18.4297 90.6058 18.671 91.3712 18.6295C92.0885 18.5909 92.7306 18.2972 93.1361 17.8244C94.2577 16.5139 93.3851 14.5001 93.1978 14.1104C92.3535 12.343 90.7377 11.0176 89.2686 10.887C88.3775 10.8079 87.6047 11.1521 86.9762 11.9117C86.8233 12.0967 86.4745 12.1006 85.6291 12.0917C84.9241 12.0848 83.9603 12.0749 83.5141 12.2668C82.9139 12.5249 82.7142 13.0719 82.6489 13.3795L82.6477 13.3805Z" fill="black"/>
<path d="M36.4279 153.347L34.292 161.573L39.8826 162.843L42.9736 154.834L36.4279 153.347Z" fill="white"/>
<path d="M39.8834 163.062C39.8588 163.062 39.8341 163.059 39.8082 163.054L34.2189 161.784C34.0809 161.753 33.9958 161.641 34.0254 161.528L36.1601 153.303C36.1761 153.244 36.2217 153.191 36.2858 153.16C36.3511 153.128 36.4287 153.119 36.5027 153.136L43.0484 154.624C43.1199 154.639 43.1791 154.678 43.2148 154.73C43.2506 154.783 43.258 154.844 43.2358 154.901L40.1447 162.909C40.109 163.003 40.0005 163.064 39.8834 163.064V163.062ZM34.6133 161.417L39.701 162.573L42.6306 154.985L36.637 153.623L34.6133 161.417Z" fill="black"/>
<path d="M32.4435 168.505C32.5064 169.296 33.713 169.931 34.6879 170.05C38.0785 170.461 46.0465 170.287 48.2108 170.408C51.0196 170.564 56.2947 170.396 56.4992 168.958C56.7482 167.203 54.3929 164.645 48.7568 163.243C45.8419 162.518 42.7595 158.927 41.3951 158.863C40.0307 158.798 37.6163 161.635 37.6163 161.635L33.7315 160.575C33.7315 160.575 32.1231 164.491 32.4423 168.506L32.4435 168.505Z" fill="white"/>
<path d="M49.9794 170.666C48.9503 170.666 48.2169 170.628 48.1923 170.627C47.4528 170.586 45.9997 170.579 44.3161 170.572C41.0057 170.558 36.8854 170.54 34.6472 170.268C33.5072 170.129 32.2402 169.394 32.1712 168.52C31.8507 164.51 33.4567 160.546 33.4727 160.507C33.4961 160.451 33.5454 160.405 33.6107 160.379C33.676 160.352 33.7512 160.348 33.8215 160.367L37.5103 161.374C38.0588 160.751 40.0702 158.581 41.4124 158.643C42.1223 158.677 43.0701 159.406 44.2717 160.33C45.6152 161.362 47.2876 162.648 48.8393 163.034C54.6653 164.483 57.0354 167.133 56.7729 168.983C56.5646 170.448 52.4333 170.667 49.9806 170.667L49.9794 170.666ZM33.9115 160.855C33.591 161.719 32.446 165.091 32.7172 168.49C32.7689 169.143 33.819 169.722 34.7286 169.832C36.9286 170.099 41.0266 170.116 44.3186 170.131C46.0108 170.139 47.4737 170.145 48.2293 170.188C51.3585 170.361 56.0642 170.082 56.2269 168.931C56.4721 167.203 53.9579 164.766 48.6754 163.452C46.9992 163.036 45.2762 161.71 43.8909 160.645C42.8605 159.853 41.8869 159.104 41.3779 159.08C40.4942 159.039 38.7416 160.7 37.8406 161.758C37.7716 161.839 37.6434 161.873 37.5263 161.842L33.909 160.854L33.9115 160.855Z" fill="black"/>
<path d="M51.4435 168.527C50.7016 168.527 49.8869 168.493 49.0242 168.457C47.7461 168.403 46.4236 168.348 45.1221 168.396C42.1691 168.503 39.6425 168.41 38.0439 168.312C35.0798 168.131 34.9627 167.981 34.9183 167.925C34.8653 167.858 34.8616 167.771 34.9097 167.701C34.9824 167.594 35.1488 167.555 35.2807 167.612C35.2807 167.612 35.2831 167.612 35.2844 167.613C35.7577 167.713 39.8742 168.146 45.0974 167.955C46.4248 167.907 47.7609 167.962 49.0525 168.017C51.0097 168.099 52.8572 168.176 53.9258 167.811C54.065 167.764 54.2253 167.815 54.2856 167.927C54.3448 168.039 54.2807 168.167 54.1414 168.216C53.4414 168.455 52.5183 168.526 51.4435 168.526V168.527Z" fill="black"/>
<path d="M44.209 165.706C44.14 165.706 44.071 165.685 44.018 165.644C43.9095 165.559 43.9083 165.419 44.0131 165.333L46.059 163.653C46.165 163.566 46.3388 163.565 46.446 163.649C46.5544 163.734 46.5557 163.873 46.4509 163.959L44.405 165.64C44.3508 165.684 44.2805 165.706 44.209 165.706Z" fill="black"/>
<path d="M6.1099 152.956L5.8252 158.692L10.8155 159.66L11.7042 152.996L6.1099 152.956Z" fill="white"/>
<path d="M10.8149 159.88C10.794 159.88 10.7718 159.878 10.7508 159.874L5.7605 158.907C5.63356 158.882 5.54605 158.789 5.55098 158.684L5.83568 152.947C5.84185 152.829 5.96263 152.736 6.1093 152.736H6.11176L11.706 152.777C11.7837 152.777 11.8564 152.804 11.9082 152.85C11.9599 152.896 11.9846 152.958 11.9759 153.019L11.0873 159.683C11.0787 159.747 11.0368 159.803 10.9727 159.84C10.9259 159.866 10.8704 159.88 10.8149 159.88ZM6.10683 158.521L10.5746 159.388L11.3979 153.214L6.37058 153.177L6.1056 158.521H6.10683Z" fill="black"/>
<path d="M11.577 170.091C9.57665 170.318 6.31302 170.414 2.44794 170.088C0.715065 169.942 0.0396612 168.008 0.344086 167.013C1.19204 164.241 2.66486 159.77 5.17174 157.333L6.09241 158.822L6.96131 157.371C7.07963 157.201 7.29039 157.085 7.53072 157.06L9.40534 157.075C9.7985 157.035 10.1645 157.244 10.2459 157.557L10.5454 158.703L12.1452 157.222L13.3937 168.159C13.5465 169.095 12.738 169.96 11.5757 170.091H11.577Z" fill="white"/>
<path d="M7.3086 170.519C5.93561 170.519 4.29517 170.465 2.41809 170.307C1.75132 170.25 1.16712 169.957 0.728351 169.455C0.0393907 168.67 -0.120833 167.606 0.0763653 166.961C1.09317 163.635 2.56722 159.519 4.95948 157.194C5.01864 157.136 5.11108 157.107 5.20228 157.116C5.29472 157.125 5.37483 157.17 5.41673 157.236L6.08844 158.321L6.71454 157.276C6.88093 157.034 7.17057 156.876 7.49717 156.843C7.5095 156.842 7.51936 156.841 7.53415 156.841L9.39151 156.854C9.91778 156.809 10.4058 157.095 10.5155 157.511L10.7016 158.224L11.9403 157.079C12.0118 157.013 12.1264 156.987 12.2312 157.014C12.3359 157.04 12.4099 157.116 12.4197 157.203L13.6682 168.139C13.8396 169.184 12.9201 170.161 11.6161 170.309C10.9025 170.39 9.42602 170.519 7.30984 170.519H7.3086ZM5.11724 157.743C2.66089 160.354 1.23121 165.03 0.6088 167.067C0.444879 167.602 0.58908 168.532 1.17698 169.203C1.527 169.603 1.96454 169.827 2.47602 169.871C5.74211 170.146 9.12899 170.148 11.5385 169.875C12.5454 169.761 13.2566 169.004 13.1235 168.188L11.9329 157.758L10.7546 158.848C10.6869 158.912 10.5796 158.938 10.4786 158.918C10.3775 158.897 10.3011 158.832 10.2789 158.751L9.9794 157.604C9.92764 157.405 9.69223 157.27 9.44081 157.296C9.42848 157.297 9.41616 157.298 9.40383 157.298L7.55017 157.284C7.40351 157.303 7.27409 157.376 7.20138 157.481L6.33987 158.921C6.29427 158.997 6.19936 159.044 6.0946 159.045C6.00217 159.041 5.89371 158.999 5.84811 158.924L5.11971 157.747L5.11724 157.743Z" fill="black"/>
<path d="M6.01916 168.725C4.73983 168.725 3.35575 168.634 1.97536 168.38C1.82747 168.354 1.73626 168.236 1.76954 168.117C1.80282 167.999 1.95071 167.925 2.09738 167.952C6.80302 168.815 11.7219 167.706 11.7712 167.695C11.9154 167.661 12.0682 167.729 12.1101 167.845C12.152 167.962 12.0682 168.084 11.9228 168.117C11.7749 168.151 9.22855 168.725 6.02039 168.725H6.01916Z" fill="black"/>
<path d="M4.87239 164.478C4.72573 164.478 4.60371 164.384 4.59878 164.266C4.59385 164.144 4.71217 164.043 4.86377 164.039L9.36111 163.92C9.51025 163.919 9.63842 164.011 9.64335 164.132C9.64828 164.254 9.52996 164.355 9.37837 164.359L4.88102 164.478C4.88102 164.478 4.87486 164.478 4.87239 164.478Z" fill="black"/>
<path d="M58.803 84.2393C60.6961 93.13 64.1373 114.98 56.7078 131.323C50.3137 145.389 45.7498 152.393 43.9959 154.937C43.5165 155.632 42.5601 156.02 41.579 155.919L37.0213 155.448C35.6705 155.309 34.7301 154.299 34.9458 153.217C36.6084 144.849 43.2133 104.114 41.4533 100.348L13.1492 153.743C12.8436 154.31 12.146 154.674 11.3782 154.667L6.59733 154.625C5.53246 154.615 4.68328 153.903 4.71163 153.047C6.12406 109.83 21.89 102.875 26.5094 82.2127C26.5205 82.1642 28.0217 83.6162 28.0784 83.6429C32.7039 85.7931 35.0185 85.626 42.1139 85.9375C49.7899 86.2738 56.9186 83.9495 58.5997 84.0128C58.7279 84.0177 58.7809 84.1374 58.803 84.2403V84.2393Z" fill="black"/>
<path d="M50.346 42.8414L51.6537 37.4579C51.7474 37.0959 52.1196 36.8229 52.5756 36.7804L55.2057 36.54C55.7665 36.4886 56.2164 36.1434 56.3051 35.6944L56.9004 32.6916C56.9004 32.6916 56.9053 32.6827 56.9103 32.6807L58.16 32.1377C58.409 32.0299 58.5039 31.7816 58.3757 31.5789L57.0594 29.5117C56.803 29.1091 56.4505 26.8373 55.8898 26.86C55.8898 26.86 46.4242 24.2142 43.6401 27.3684C42.903 28.2041 42.8205 29.306 43.3196 30.2486L43.9568 31.4513C44.6187 32.7015 44.7665 34.1069 44.26 35.4026C44.0801 35.8645 43.8262 36.3116 43.5033 36.7299L39.9463 41.1817C42.5308 42.2232 45.3729 42.7821 48.2631 42.8157L50.346 42.8404V42.8414Z" fill="white"/>
<path d="M50.3473 43.0608H50.3436L48.2607 43.0361C45.3471 43.0015 42.4298 42.4278 39.8256 41.3784C39.7566 41.3507 39.7048 41.3003 39.6838 41.2399C39.6629 41.1796 39.6752 41.1153 39.7171 41.0629L43.2741 36.6111C43.5797 36.2145 43.825 35.7852 44 35.3362C44.4696 34.1315 44.3661 32.7824 43.7054 31.5361L43.0683 30.3334C42.5173 29.2929 42.6504 28.108 43.417 27.2396C46.2222 24.0627 55.1676 26.4276 55.9404 26.6402C56.4592 26.6749 56.7033 27.4068 57.0336 28.5877C57.1322 28.9388 57.2332 29.3018 57.3035 29.4116L58.6198 31.4788C58.8145 31.7854 58.6666 32.1672 58.2907 32.3304L57.1519 32.8259L56.5763 35.7288C56.4691 36.2728 55.9182 36.6961 55.2378 36.7584L52.6077 36.9988C52.2675 37.0294 51.9927 37.2322 51.9224 37.5022L50.6148 42.8838C50.5901 42.9866 50.4767 43.0618 50.3461 43.0618L50.3473 43.0608ZM40.3432 41.0935C42.8045 42.045 45.5382 42.5643 48.2681 42.5969L50.1218 42.6187L51.3863 37.4152C51.5046 36.9563 51.9705 36.615 52.5461 36.5616L55.1762 36.3213C55.6125 36.2817 55.9662 36.0097 56.0353 35.6596L56.6305 32.6568C56.6441 32.5895 56.7057 32.5193 56.7809 32.4866L58.0307 31.9436C58.1477 31.8932 58.1933 31.7735 58.1329 31.6786L56.8167 29.6114C56.7205 29.4601 56.633 29.1604 56.4999 28.6847C56.3656 28.2079 56.0907 27.2248 55.8689 27.0784C55.8455 27.0764 55.8233 27.0735 55.8011 27.0665C55.7086 27.0408 46.4983 24.5118 43.8644 27.4938C43.2075 28.2376 43.0954 29.2603 43.5736 30.1613L44.2108 31.3641C44.9219 32.7062 45.0328 34.1631 44.5238 35.4677C44.3353 35.9514 44.0703 36.4142 43.7387 36.8455L40.3445 41.0925L40.3432 41.0935Z" fill="black"/>
<path d="M48.5084 30.2086C48.0228 29.2393 47.2636 28.8763 47.4054 28.3254C47.4916 27.9931 47.8491 27.7844 48.0537 27.6657C49.0668 27.0762 50.3978 27.4362 53.0723 27.8407C56.3927 28.3432 56.771 28.4223 57.3971 28.2235C58.9895 27.7181 59.8954 26.1455 59.9644 24.8518C59.9841 24.4888 60.0236 22.5621 57.9863 21.5681C56.5147 20.85 54.5452 20.9044 52.954 21.6996C52.8148 21.3257 52.5251 20.7986 51.8929 20.5394C50.3929 19.9242 48.156 21.304 47.3733 21.7866C46.6499 22.2327 45.3594 23.1644 44.4351 24.8033C44.1393 24.6708 43.0313 24.2099 41.8234 24.5194C40.0277 24.9804 39.5852 26.7419 39.547 26.909C39.0972 28.8555 41.0913 30.5538 42.5962 31.8366C43.4257 32.5438 43.862 32.8128 44.3488 33.0739C44.6372 33.2282 45.0094 33.2391 45.3126 33.1056C45.3175 33.1036 45.3237 33.1006 45.3286 33.0986C45.7267 32.9226 45.8598 32.5131 45.6207 32.2025L45.5443 32.1036C45.2571 31.7317 45.0612 31.3153 45.0008 30.8792C44.9527 30.532 44.9872 30.167 45.2658 29.9801C45.7144 29.6774 46.4785 29.8772 46.5882 29.9059C47.1478 30.0523 47.499 30.3856 47.7147 30.7021C47.9464 31.0414 48.7217 30.6378 48.5072 30.2076L48.5084 30.2086Z" fill="black"/>
<path d="M22.6889 22.6795C22.5953 22.6795 22.5004 22.6746 22.4054 22.6647C21.2161 22.5431 20.3571 21.6746 20.4902 20.7301C20.5543 20.2741 20.8365 19.8676 21.2851 19.5847C21.7411 19.2969 22.3142 19.1713 22.896 19.2316C24.0853 19.3533 24.9444 20.2217 24.8113 21.1663C24.7472 21.6222 24.4649 22.0287 24.0163 22.3116C23.6342 22.552 23.1708 22.6795 22.6889 22.6795ZM21.0337 20.7795C20.9339 21.4867 21.5809 22.1375 22.4745 22.2295C22.9095 22.274 23.3372 22.1811 23.6774 21.9664C24.0101 21.7567 24.2197 21.4551 24.2665 21.1178C24.3663 20.4106 23.7193 19.7598 22.8257 19.6678C22.3907 19.6233 21.963 19.7163 21.6228 19.9309C21.29 20.1406 21.0805 20.4423 21.0337 20.7795Z" fill="black"/>
<path d="M14.4228 25.9148C14.3748 25.9148 14.3279 25.9049 14.2836 25.8841L12.457 25.0167C12.3264 24.9554 12.2832 24.8199 12.3609 24.7161C12.4373 24.6112 12.6062 24.5766 12.7356 24.6389L14.5621 25.5063C14.6928 25.5676 14.7359 25.7031 14.6582 25.807C14.6077 25.8762 14.5165 25.9148 14.4228 25.9148Z" fill="black"/>
<path d="M18.6777 27.9357C18.6297 27.9357 18.5828 27.9258 18.5385 27.905L16.7119 27.0376C16.5813 26.9753 16.5381 26.8408 16.6158 26.7369C16.6922 26.6321 16.861 26.5975 16.9904 26.6598L18.817 27.5272C18.9476 27.5885 18.9908 27.724 18.9131 27.8279C18.8626 27.8971 18.7714 27.9357 18.6777 27.9357Z" fill="black"/>
<path d="M13.8365 28.9326C13.7897 28.9326 13.7416 28.9227 13.6973 28.902C13.5666 28.8406 13.5235 28.7051 13.6011 28.6013L14.682 27.1355C14.7597 27.0306 14.926 26.996 15.0567 27.0583C15.1873 27.1197 15.2305 27.2552 15.1528 27.359L14.0719 28.8248C14.0202 28.8941 13.929 28.9326 13.8353 28.9326H13.8365Z" fill="black"/>
<path d="M16.3561 25.5162C16.3092 25.5162 16.2612 25.5063 16.2168 25.4855C16.0861 25.4242 16.043 25.2887 16.1207 25.1848L17.2015 23.719C17.2792 23.6142 17.4468 23.5796 17.5762 23.6419C17.7069 23.7032 17.75 23.8387 17.6724 23.9426L16.5915 25.4084C16.5409 25.4776 16.4485 25.5162 16.3548 25.5162H16.3561Z" fill="black"/>
<path d="M206.07 180.781H110.3C104.551 180.781 100.251 176.544 101.408 172.023L115.938 115.318C117.159 110.55 122.389 107.127 128.452 107.127H210.599L206.07 180.782V180.781Z" fill="white"/>
<path d="M206.069 181H110.3C107.478 181 104.837 179.993 103.053 178.237C101.268 176.481 100.571 174.199 101.14 171.979L115.67 115.273C116.912 110.426 122.289 106.907 128.453 106.907H210.6C210.675 106.907 210.747 106.931 210.798 106.975C210.85 107.018 210.877 107.077 210.874 107.137L206.344 180.791C206.337 180.908 206.217 181 206.071 181H206.069ZM128.452 107.346C122.546 107.346 117.396 110.717 116.206 115.361L101.676 172.067C101.14 174.158 101.797 176.305 103.477 177.959C105.156 179.611 107.643 180.559 110.299 180.559H205.807L210.309 107.345H128.451L128.452 107.346Z" fill="black"/>
<path d="M218.332 180.78H199.748C193.998 180.78 189.698 176.544 190.855 172.023L206.858 109.565C207.221 108.145 208.779 107.126 210.585 107.126H215.364C217.346 107.126 218.995 108.347 219.157 109.932L225.703 174.359C226.054 177.817 222.653 180.779 218.332 180.779V180.78Z" fill="white"/>
<path d="M218.332 181H199.747C196.925 181 194.284 179.993 192.5 178.237C190.716 176.481 190.018 174.199 190.588 171.978L206.59 109.521C206.978 108.005 208.658 106.905 210.585 106.905H215.364C217.472 106.905 219.258 108.227 219.429 109.913L225.975 174.34C226.149 176.05 225.418 177.754 223.97 179.015C222.521 180.275 220.467 180.998 218.332 180.998V181ZM210.585 107.346C208.917 107.346 207.463 108.297 207.126 109.61L191.124 172.067C190.588 174.158 191.244 176.306 192.924 177.959C194.603 179.612 197.09 180.56 199.746 180.56H218.331C220.342 180.56 222.202 179.906 223.566 178.718C224.911 177.547 225.59 175.964 225.429 174.377L218.883 109.95C218.735 108.489 217.188 107.346 215.364 107.346H210.585Z" fill="black"/>
<path d="M212.408 178.783H199.746C197.756 178.783 195.894 178.073 194.637 176.836C193.38 175.597 192.889 173.99 193.29 172.425L198.543 151.923C198.573 151.804 198.718 151.727 198.866 151.752C199.013 151.776 199.11 151.892 199.079 152.011L193.826 172.513C193.459 173.947 193.909 175.422 195.061 176.557C196.213 177.692 197.92 178.343 199.744 178.343H212.407C212.559 178.343 212.681 178.441 212.681 178.562C212.681 178.684 212.557 178.782 212.407 178.782L212.408 178.783Z" fill="black"/>
<path d="M218.332 178.783C218.181 178.783 218.059 178.685 218.059 178.563C218.059 178.442 218.181 178.344 218.332 178.344C219.565 178.344 220.704 177.943 221.538 177.215C222.374 176.487 222.778 175.544 222.678 174.558L221.187 159.875C221.174 159.754 221.286 159.647 221.437 159.638C221.585 159.627 221.72 159.718 221.731 159.838L223.223 174.521C223.336 175.631 222.88 176.693 221.94 177.512C220.999 178.331 219.718 178.782 218.331 178.782L218.332 178.783Z" fill="black"/>
<path d="M217.306 119.218C217.164 119.218 217.044 119.13 217.033 119.016L216.723 115.956C216.71 115.835 216.822 115.728 216.973 115.718C217.124 115.707 217.256 115.798 217.267 115.919L217.578 118.979C217.59 119.1 217.478 119.207 217.328 119.217C217.32 119.217 217.313 119.217 217.306 119.217V119.218Z" fill="black"/>
<path d="M205.173 127.36C205.154 127.36 205.136 127.358 205.117 127.355C204.97 127.33 204.873 127.214 204.904 127.095L209.293 109.968C209.419 109.478 209.961 109.123 210.583 109.123H215.363C216.045 109.123 216.62 109.55 216.676 110.094L216.879 112.098C216.891 112.219 216.779 112.326 216.629 112.336C216.48 112.346 216.347 112.255 216.334 112.135L216.131 110.131C216.099 109.812 215.761 109.563 215.364 109.563H210.585C210.221 109.563 209.904 109.771 209.83 110.057L205.442 127.184C205.414 127.288 205.301 127.361 205.174 127.361L205.173 127.36Z" fill="black"/>
<path d="M193.022 137.113H118.037C117.886 137.113 117.764 137.015 117.764 136.893C117.764 136.772 117.886 136.674 118.037 136.674H193.022C195.127 136.674 196.936 135.525 197.422 133.881L204.032 111.478C204.066 111.36 204.214 111.287 204.361 111.315C204.507 111.343 204.599 111.461 204.564 111.579L197.954 133.981C197.411 135.825 195.382 137.113 193.022 137.113Z" fill="black"/>
<path d="M164.08 136.894L161.98 143.696C161.641 144.848 160.36 145.66 158.887 145.66H144.036C142.419 145.66 141.248 144.422 141.68 143.171L143.856 136.894H164.08Z" fill="white"/>
<path d="M158.887 145.879H144.036C143.179 145.879 142.391 145.566 141.872 145.018C141.353 144.47 141.186 143.775 141.417 143.112L143.592 136.834C143.626 136.739 143.733 136.673 143.856 136.673H164.08C164.164 136.673 164.244 136.704 164.296 136.757C164.347 136.81 164.366 136.88 164.346 136.945L162.246 143.748C161.876 145.001 160.495 145.878 158.887 145.878V145.879ZM144.064 137.113L141.946 143.229C141.762 143.759 141.895 144.313 142.309 144.752C142.723 145.189 143.353 145.44 144.037 145.44H158.889C160.241 145.44 161.403 144.702 161.715 143.646L163.731 137.114H144.066L144.064 137.113Z" fill="black"/>
<path d="M186.179 175.303H106.52C106.368 175.303 106.246 175.205 106.246 175.083C106.246 174.962 106.368 174.864 106.52 174.864H186.179C186.331 174.864 186.453 174.963 186.453 175.083C186.453 175.204 186.329 175.303 186.179 175.303Z" fill="black"/>
<path d="M147.375 104.553H141.157C139.477 104.553 138.115 105.647 138.115 106.995H150.417C150.417 105.646 149.055 104.553 147.375 104.553Z" fill="white"/>
<path d="M150.416 107.214H138.114C137.963 107.214 137.841 107.116 137.841 106.995C137.841 105.527 139.328 104.333 141.156 104.333H147.374C149.202 104.333 150.69 105.527 150.69 106.995C150.69 107.117 150.567 107.214 150.416 107.214ZM138.402 106.775H150.129C149.991 105.653 148.809 104.772 147.374 104.772H141.156C139.723 104.772 138.54 105.653 138.402 106.775Z" fill="black"/>
<path d="M197.209 104.553H190.991C189.311 104.553 187.949 105.647 187.949 106.995H200.251C200.251 105.646 198.889 104.553 197.209 104.553Z" fill="black"/>
<path d="M200.252 107.214H187.95C187.799 107.214 187.677 107.116 187.677 106.995C187.677 105.527 189.164 104.333 190.992 104.333H197.21C199.038 104.333 200.525 105.527 200.525 106.995C200.525 107.117 200.402 107.214 200.252 107.214ZM188.236 106.775H199.963C199.825 105.653 198.643 104.772 197.209 104.772H190.991C189.558 104.772 188.374 105.653 188.236 106.775Z" fill="black"/>
<path d="M195.585 104.421L196.587 99.6428C197.299 96.2542 194.453 93.5066 190.232 93.5066H152.945C148.724 93.5066 144.727 96.2542 144.016 99.6428L143.014 104.421H145.867L146.647 100.702C147.2 98.0642 150.311 95.9268 153.597 95.9268H188.565C191.85 95.9268 194.066 98.0652 193.512 100.702L192.732 104.421H195.585Z" fill="white"/>
<path d="M195.587 104.641H192.733C192.653 104.641 192.577 104.612 192.524 104.562C192.472 104.513 192.45 104.448 192.463 104.384L193.244 100.665C193.5 99.442 193.146 98.2966 192.245 97.4431C191.364 96.6073 190.058 96.1464 188.568 96.1464H153.599C150.447 96.1464 147.45 98.2066 146.919 100.739L146.139 104.458C146.117 104.563 146.002 104.641 145.869 104.641H143.016C142.936 104.641 142.859 104.612 142.806 104.562C142.755 104.513 142.733 104.448 142.746 104.384L143.748 99.6062C144.479 96.1217 148.605 93.287 152.947 93.287H190.234C192.336 93.287 194.184 93.9418 195.437 95.1306C196.715 96.3432 197.221 97.9584 196.86 99.6794L195.858 104.458C195.836 104.563 195.721 104.641 195.588 104.641H195.587ZM193.056 104.201H195.355L196.319 99.6062C196.653 98.0157 196.19 96.5262 195.018 95.4145C193.871 94.3255 192.171 93.7261 190.233 93.7261H152.946C148.859 93.7261 144.976 96.3966 144.287 99.6794L143.339 104.201H145.638L146.378 100.665C146.951 97.9307 150.19 95.7063 153.598 95.7063H188.566C190.222 95.7063 191.676 96.2216 192.663 97.1582C193.669 98.1137 194.067 99.3846 193.783 100.738L193.057 104.2L193.056 104.201Z" fill="black"/>
<path d="M188.38 91.5286H155.627C154.307 91.5286 153.057 92.3881 152.834 93.4474L152.352 95.744C152.13 96.8033 153.02 97.6628 154.34 97.6628H187.094C188.414 97.6628 189.663 96.8033 189.886 95.744L190.368 93.4474C190.59 92.3881 189.7 91.5286 188.38 91.5286Z" fill="white"/>
<path d="M187.093 97.8824H154.34C153.626 97.8824 152.998 97.6589 152.569 97.2523C152.133 96.8389 151.96 96.29 152.082 95.7074L152.564 93.4108C152.807 92.2516 154.181 91.309 155.627 91.309H188.38C189.094 91.309 189.722 91.5326 190.151 91.9391C190.588 92.3525 190.76 92.9014 190.638 93.484L190.156 95.7806C189.913 96.9398 188.539 97.8824 187.093 97.8824ZM155.627 91.7482C154.436 91.7482 153.305 92.5266 153.105 93.484L152.623 95.7806C152.528 96.2336 152.658 96.6559 152.988 96.9685C153.311 97.2741 153.79 97.4432 154.341 97.4432H187.095C188.285 97.4432 189.417 96.6648 189.616 95.7074L190.098 93.4108C190.193 92.9578 190.064 92.5355 189.733 92.2229C189.41 91.9173 188.931 91.7482 188.38 91.7482H155.627Z" fill="black"/>
<path d="M168.314 97.8824H154.34C153.626 97.8824 152.998 97.6589 152.569 97.2523C152.133 96.8389 151.96 96.29 152.082 95.7074L152.564 93.4108C152.807 92.2516 154.181 91.309 155.627 91.309H166.552C166.703 91.309 166.825 91.4079 166.825 91.5286C166.825 91.6493 166.703 91.7482 166.552 91.7482H155.627C154.436 91.7482 153.305 92.5266 153.105 93.484L152.623 95.7806C152.528 96.2336 152.658 96.6559 152.988 96.9685C153.311 97.2741 153.79 97.4432 154.341 97.4432H168.315C168.467 97.4432 168.589 97.5421 168.589 97.6628C168.589 97.7835 168.466 97.8824 168.315 97.8824H168.314Z" fill="black"/>
<path d="M199.571 175.303C199.476 175.303 199.384 175.263 199.333 175.192C199.258 175.086 199.304 174.953 199.435 174.892L212.135 169.083V111.528C212.135 111.406 212.258 111.308 212.409 111.308C212.559 111.308 212.682 111.406 212.682 111.528V169.21C212.682 169.289 212.629 169.363 212.544 169.401L199.707 175.274C199.663 175.294 199.618 175.303 199.571 175.303Z" fill="black"/>
<path d="M199.07 105.688C199.07 105.688 204.784 107.397 207.025 105.958C209.265 104.519 203.552 102.089 202.207 102.269C200.862 102.449 199.07 105.688 199.07 105.688Z" fill="black"/>
<path d="M170.354 142.364L175.732 149.92L178.645 146.682L173.94 139.305L170.354 142.364Z" fill="white"/>
<path d="M175.731 150.14C175.731 150.14 175.722 150.14 175.717 150.14C175.624 150.136 175.539 150.094 175.494 150.029L170.115 142.472C170.056 142.388 170.071 142.283 170.153 142.212L173.739 139.154C173.799 139.102 173.888 139.077 173.976 139.087C174.065 139.097 174.142 139.14 174.182 139.204L178.888 146.581C178.935 146.654 178.926 146.743 178.866 146.809L175.952 150.048C175.9 150.105 175.818 150.139 175.73 150.139L175.731 150.14ZM170.692 142.396L175.759 149.515L178.325 146.662L173.872 139.683L170.692 142.396Z" fill="black"/>
<path d="M173.869 148.768C175.288 151.115 178.877 156.808 182.336 159.537C183.179 160.202 184.605 159.893 184.909 158.975C185.991 155.688 186.712 148.841 182.679 143.443C182.679 143.443 180.761 143.263 177.176 143.803L177.973 146.502L177.533 146.249C176.87 145.87 175.971 145.901 175.352 146.327L174.319 147.038C173.697 147.466 173.513 148.176 173.87 148.768H173.869Z" fill="black"/>
<path d="M182.902 158.775C182.87 158.775 182.837 158.77 182.805 158.761C182.663 158.719 182.592 158.591 182.646 158.478C185.709 151.981 181.574 144.329 181.531 144.253C181.469 144.142 181.532 144.012 181.671 143.963C181.809 143.913 181.97 143.964 182.032 144.076C182.075 144.154 186.299 151.971 183.159 158.635C183.117 158.723 183.013 158.777 182.902 158.777V158.775Z" fill="white"/>
<path d="M175.956 152.26C175.866 152.26 175.778 152.225 175.725 152.16C175.643 152.058 175.678 151.922 175.805 151.857L178.495 150.456C178.621 150.39 178.792 150.418 178.873 150.52C178.955 150.622 178.92 150.759 178.793 150.824L176.103 152.225C176.058 152.248 176.006 152.26 175.954 152.26H175.956Z" fill="white"/>
<path d="M177.3 154.177C177.217 154.177 177.136 154.147 177.083 154.091C176.991 153.995 177.014 153.856 177.134 153.782L179.599 152.263C179.718 152.189 179.891 152.207 179.983 152.304C180.075 152.4 180.052 152.538 179.933 152.612L177.468 154.131C177.418 154.162 177.359 154.177 177.301 154.177H177.3Z" fill="white"/>
<path d="M153.324 142.543C153.324 142.723 148.394 151.359 148.394 151.359L153.995 151.719L157.805 144.342L153.324 142.543Z" fill="white"/>
<path d="M153.995 151.938C153.988 151.938 153.981 151.938 153.973 151.938L148.372 151.578C148.283 151.572 148.203 151.532 148.157 151.47C148.111 151.408 148.107 151.333 148.145 151.268C150.048 147.934 152.913 142.871 153.054 142.506C153.067 142.444 153.113 142.39 153.179 142.356C153.261 142.316 153.361 142.313 153.446 142.346L157.927 144.145C158.055 144.197 158.112 144.319 158.058 144.426L154.248 151.803C154.205 151.885 154.105 151.938 153.995 151.938ZM148.805 151.165L153.819 151.487L157.455 144.448L153.468 142.848C153.165 143.447 152.158 145.292 148.807 151.166L148.805 151.165Z" fill="black"/>
<path d="M153.548 149.56C153.548 149.56 152.428 147.401 149.514 148.481C149.514 148.481 144.166 154.682 142.18 159.803C141.618 161.251 143.47 162.556 145.192 161.932C149.222 160.471 155.537 157.405 159.151 151.72C159.151 151.72 158.031 149.381 156.237 148.302L153.548 149.561V149.56Z" fill="black"/>
<path d="M143.822 160.59C143.592 160.59 143.456 160.576 143.423 160.572C143.274 160.554 143.17 160.442 143.192 160.323C143.215 160.203 143.353 160.12 143.503 160.138C143.566 160.145 149.518 160.697 157.584 151.77C157.673 151.672 157.844 151.65 157.966 151.722C158.088 151.793 158.117 151.93 158.027 152.028C150.834 159.987 145.325 160.591 143.822 160.591V160.59Z" fill="white"/>
<path d="M148.392 155.717C148.345 155.717 148.297 155.707 148.254 155.687L145.565 154.428C145.434 154.366 145.39 154.232 145.466 154.127C145.543 154.022 145.71 153.987 145.841 154.048L148.53 155.307C148.661 155.368 148.705 155.503 148.629 155.608C148.578 155.678 148.486 155.717 148.392 155.717Z" fill="white"/>
<path d="M149.737 154.098C149.693 154.098 149.649 154.089 149.608 154.071L146.694 152.812C146.561 152.755 146.512 152.621 146.584 152.514C146.655 152.407 146.821 152.368 146.955 152.425L149.868 153.684C150.001 153.742 150.051 153.875 149.979 153.982C149.93 154.055 149.835 154.098 149.737 154.098Z" fill="white"/>
<path d="M182.006 99.0057C182.006 99.0057 167.401 101.1 156.876 109.961C154.22 112.197 153.281 115.416 154.421 118.369C156.759 124.425 161.849 135.486 170.355 143.804L176.853 139.306C176.853 139.306 175.284 128.872 171.027 122.395C166.769 115.919 191.643 101.886 191.643 101.886L182.008 99.0077L182.006 99.0057Z" fill="#9897AE"/>
<path d="M170.354 144.023C170.347 144.023 170.338 144.023 170.331 144.023C170.257 144.018 170.189 143.99 170.142 143.944C161.565 135.556 156.447 124.36 154.158 118.435C152.989 115.407 153.954 112.103 156.677 109.81C167.143 101 181.811 98.8118 181.958 98.791C182.006 98.7841 182.055 98.7881 182.102 98.8009L191.738 101.679C191.833 101.708 191.9 101.776 191.914 101.857C191.927 101.938 191.883 102.018 191.799 102.065C191.553 102.204 167.17 116.059 171.268 122.292C175.501 128.73 177.108 139.175 177.124 139.28C177.135 139.353 177.101 139.425 177.032 139.472L170.533 143.97C170.482 144.004 170.419 144.023 170.354 144.023ZM181.982 99.2331C180.858 99.4092 167.036 101.726 157.074 110.112C154.488 112.289 153.571 115.427 154.682 118.303C156.942 124.158 161.977 135.179 170.388 143.49L176.562 139.217C176.373 138.058 174.729 128.5 170.784 122.498C166.723 116.32 187.68 103.897 191.062 101.947L181.982 99.2351V99.2331Z" fill="black"/>
<path d="M151.53 144.163L159.15 145.962C159.15 145.962 173.043 122.393 177.076 118.975C181.11 115.557 188.952 109.979 197.243 108C205.534 106.021 205.534 100.984 205.534 100.984L191.417 97.7455C191.417 97.7455 171.697 104.582 165.2 112.319C158.701 120.055 151.53 144.163 151.53 144.163Z" fill="#9897AE"/>
<path d="M159.149 146.181C159.123 146.181 159.097 146.178 159.071 146.172L151.452 144.373C151.313 144.34 151.229 144.225 151.264 144.111C151.335 143.87 158.521 119.876 164.973 112.196C171.441 104.495 191.111 97.6128 191.31 97.5446C191.368 97.5248 191.433 97.5208 191.493 97.5347L205.61 100.773C205.727 100.8 205.809 100.886 205.809 100.985C205.809 101.037 205.711 106.209 197.322 108.212C188.063 110.421 179.637 117.125 177.275 119.127C173.318 122.481 159.536 145.821 159.397 146.057C159.351 146.135 159.253 146.182 159.149 146.182V146.181ZM151.858 144.011L159.002 145.698C160.362 143.399 172.996 122.115 176.877 118.824C179.263 116.803 187.777 110.032 197.165 107.79C204.333 106.079 205.155 102.012 205.249 101.148L191.437 97.9798C189.988 98.4921 171.584 105.112 165.426 112.442C159.344 119.682 152.57 141.66 151.858 144.011Z" fill="black"/>
<path d="M216.966 82.4533C213.156 76.3359 206.881 75.4368 206.881 75.4368L196.125 74.7168C192.762 74.5338 189.187 76.2023 187.858 78.6899L177.975 97.2053C177.975 97.2053 179.991 101.524 188.955 102.243C197.919 102.963 204.081 102.513 206.994 105.391C208.914 107.289 208.853 94.6317 207.749 84.6213L216.966 82.4523V82.4533Z" fill="white"/>
<path d="M207.355 105.803C207.193 105.803 206.993 105.74 206.781 105.53C204.597 103.372 200.382 103.142 194.547 102.821C192.859 102.728 190.945 102.623 188.927 102.462C179.898 101.737 177.803 97.4643 177.718 97.2833C177.693 97.2299 177.694 97.1716 177.723 97.1192L187.606 78.6037C188.957 76.0727 192.626 74.3072 196.143 74.4981L206.904 75.2182C206.994 75.23 213.383 76.2112 217.21 82.3553C217.246 82.4137 217.248 82.4819 217.216 82.5412C217.184 82.6006 217.12 82.6461 217.043 82.6639L208.042 84.7825C208.813 91.9028 209.451 105.154 207.556 105.772C207.498 105.79 207.432 105.803 207.357 105.803H207.355ZM178.272 97.2062C178.6 97.7808 180.969 101.382 188.981 102.025C190.99 102.186 192.899 102.291 194.584 102.383C200.557 102.71 204.872 102.947 207.206 105.253C207.306 105.352 207.36 105.363 207.36 105.363C207.384 105.353 208.212 105.016 208.245 98.3525C208.265 94.3191 207.978 89.1937 207.475 84.642C207.464 84.5372 207.545 84.4412 207.671 84.4116L216.571 82.3177C212.852 76.5781 206.893 75.6623 206.833 75.6543L196.101 74.9373C192.811 74.7582 189.372 76.41 188.109 78.7778L178.271 97.2072L178.272 97.2062Z" fill="black"/>
<path d="M188.197 98.3981L193.127 96.599L196.937 97.8581C196.937 97.8581 217.583 96.1965 208.446 84.4582C208.406 84.4077 215.417 82.8183 215.417 82.8183C215.417 82.8183 223.746 98.7582 197.385 99.1182C197.385 99.1182 196.041 99.4782 194.249 98.7582C192.456 98.0381 189.319 99.4782 188.198 98.3981H188.197Z" fill="white"/>
<path d="M196.489 99.4288C195.893 99.4288 195.067 99.3328 194.126 98.955C193.365 98.6494 192.283 98.779 191.238 98.9036C189.924 99.0609 188.683 99.2092 187.988 98.5386C187.934 98.4862 187.913 98.416 187.931 98.3487C187.95 98.2815 188.008 98.2261 188.085 98.1974L193.015 96.3983C193.084 96.3735 193.163 96.3726 193.234 96.3953L196.978 97.6336C197.864 97.5505 207.215 96.5773 209.825 92.3065C211.112 90.2008 210.571 87.5995 208.216 84.5739C208.17 84.5156 208.161 84.4424 208.192 84.3771C208.258 84.2406 208.274 84.209 215.343 82.6057C215.477 82.576 215.617 82.6294 215.67 82.7323C215.702 82.7946 218.887 89.0297 214.993 93.8158C212.114 97.3547 206.204 99.2122 197.429 99.3368C197.312 99.3635 196.978 99.4278 196.489 99.4278V99.4288ZM192.919 98.326C193.439 98.326 193.934 98.3853 194.371 98.5614C196.029 99.227 197.287 98.9125 197.301 98.9085C197.327 98.9016 197.355 98.8977 197.382 98.8977C205.986 98.78 211.757 96.9897 214.535 93.5755C217.907 89.4313 215.733 84.1239 215.252 83.0834C212.972 83.6007 209.82 84.3267 208.857 84.572C211.169 87.6381 211.659 90.3046 210.316 92.5013C207.453 97.1826 197.392 98.0431 196.966 98.0777C196.92 98.0807 196.876 98.0757 196.834 98.0619L193.134 96.8384L188.712 98.4526C189.28 98.6929 190.197 98.5841 191.157 98.4694C191.747 98.3992 192.349 98.327 192.919 98.327V98.326Z" fill="black"/>
<path d="M169.407 99.8263H188.843L174.434 82.0349C173.985 81.479 173.199 81.1417 172.356 81.1417H156.583C155.581 81.1417 154.972 82.0022 155.507 82.6629L169.407 99.8263Z" fill="black"/>
<path d="M165.532 87.3797C166.163 88.1591 167.521 88.7921 168.565 88.7921C169.609 88.7921 169.943 88.1601 169.312 87.3797C168.681 86.6004 167.323 85.9673 166.279 85.9673C165.235 85.9673 164.901 86.5994 165.532 87.3797Z" fill="white"/>
<path d="M168.566 89.0117C167.423 89.0117 165.989 88.348 165.303 87.4994C164.923 87.0306 164.837 86.5657 165.067 86.2255C165.276 85.9179 165.706 85.7477 166.279 85.7477C167.421 85.7477 168.856 86.4114 169.543 87.26C169.922 87.7288 170.008 88.1937 169.778 88.534C169.57 88.8416 169.139 89.0117 168.566 89.0117ZM166.279 86.1879C165.917 86.1879 165.656 86.2759 165.548 86.4351C165.416 86.63 165.494 86.9307 165.761 87.26C166.337 87.9712 167.621 88.5715 168.565 88.5715C168.927 88.5715 169.188 88.4835 169.295 88.3243C169.427 88.1294 169.349 87.8287 169.082 87.4994C168.506 86.7882 167.222 86.1879 166.278 86.1879H166.279Z" fill="black"/>
<path d="M200.676 101.164H170.776C169.983 101.164 169.34 100.647 169.34 100.011V99.7106H202.11V100.011C202.11 100.647 201.467 101.164 200.675 101.164H200.676Z" fill="black"/>
<path d="M208.897 33.3379C217.125 31.252 227.766 40.7302 225.623 48.5261C225.031 50.6763 225.686 53.9284 222.75 55.1163C217.543 57.223 214.268 54.6722 212.93 56.3665C211.77 57.8352 215.89 59.9518 215.395 63.0229C214.658 67.5865 204.453 69.7891 203.294 70.0394C202.429 70.2263 190.249 72.7237 184.47 67.5202C183.079 66.267 181.253 63.8428 182.23 62.3029C183.16 60.8341 186.018 61.1496 186.711 59.6047C187.311 58.2655 185.397 57.5167 185.591 56.0064C185.964 53.0946 193.458 52.9443 194.33 49.889C195.028 47.447 190.673 46.0109 191.417 43.5926C192.017 41.6422 195.15 41.5897 200.156 39.0953C206.15 36.1083 205.779 34.1282 208.896 33.3379H208.897Z" fill="black"/>
<path d="M199.711 74.1776C199.511 74.0975 196.814 71.5437 195.237 70.0393C195.356 69.6219 195.339 69.4884 195.296 68.8554C195.296 68.8554 196.113 68.1977 195.785 67.3441C195.405 66.3521 194.231 67.1483 194.231 67.1483C194.231 67.1483 193.688 66.3857 191.644 67.7002C189.601 69.0156 187.441 67.4153 187.441 67.4153C187.441 67.4153 187.441 68.4004 188.522 69.5972C189.118 70.2579 189.219 71.1303 189.247 71.9453L190.392 71.8127C191.023 72.4121 191.491 72.7059 192.357 72.9937C192.357 72.9937 193.041 72.8928 193.752 72.421L195.006 74.7157L193.727 75.2557C193.727 75.2557 193.437 76.6948 196.8 77.0548C200.161 77.4148 202.85 75.2557 202.85 75.2557C202.85 75.2557 201.057 74.7157 199.713 74.1766L199.711 74.1776Z" fill="white"/>
<path d="M197.568 77.317C197.303 77.317 197.035 77.3032 196.76 77.2745C195.329 77.1212 194.338 76.7582 193.817 76.1954C193.362 75.7048 193.449 75.2419 193.453 75.2231C193.467 75.1549 193.52 75.0956 193.596 75.0639L194.65 74.6198L193.637 72.7673C192.991 73.1234 192.43 73.2094 192.403 73.2134C192.351 73.2213 192.297 73.2163 192.249 73.2005C191.406 72.9206 190.909 72.6338 190.28 72.0512L189.284 72.1659C189.206 72.1748 189.128 72.157 189.068 72.1165C189.009 72.0759 188.973 72.0176 188.971 71.9543C188.942 71.1551 188.842 70.3322 188.298 69.7289C187.18 68.4886 187.165 67.4609 187.165 67.4184C187.165 67.3314 187.229 67.2522 187.329 67.2176C187.429 67.182 187.545 67.1978 187.625 67.2572C187.706 67.3175 189.639 68.7111 191.47 67.5321C192.443 66.907 193.244 66.636 193.851 66.729C194.026 66.7557 194.158 66.8091 194.254 66.8645C194.505 66.734 194.943 66.5599 195.364 66.6578C195.685 66.733 195.914 66.9436 196.045 67.2819C196.353 68.083 195.797 68.721 195.574 68.9366V68.9465C195.61 69.4499 195.622 69.6339 195.532 69.9831C199.128 73.4092 199.745 73.9196 199.85 73.9908C201.164 74.517 202.925 75.0481 202.942 75.054C203.03 75.0807 203.094 75.1401 203.113 75.2133C203.133 75.2864 203.105 75.3626 203.039 75.415C202.935 75.4991 200.629 77.32 197.567 77.32L197.568 77.317ZM193.994 75.3923C194.004 75.511 194.056 75.7197 194.269 75.9452C194.697 76.3962 195.584 76.7048 196.833 76.8383C199.365 77.1093 201.535 75.8641 202.33 75.3319C201.713 75.1371 200.535 74.7543 199.587 74.3735C199.496 74.3369 199.306 74.2608 195.027 70.1799C194.972 70.1275 194.951 70.0562 194.969 69.989C195.074 69.625 195.065 69.5113 195.028 68.9663L195.021 68.8664C195.017 68.8041 195.046 68.7437 195.101 68.6992C195.129 68.6765 195.796 68.1206 195.523 67.4085C195.45 67.2196 195.345 67.1078 195.211 67.0762C194.957 67.0168 194.56 67.2117 194.407 67.3155C194.346 67.3581 194.263 67.3749 194.183 67.364C194.103 67.3531 194.032 67.3135 193.993 67.2562C193.993 67.2562 193.92 67.1771 193.727 67.1533C193.477 67.1227 192.894 67.1761 191.815 67.8704C190.26 68.8713 188.638 68.3194 187.812 67.903C187.928 68.2819 188.183 68.8456 188.744 69.4668C189.316 70.1008 189.464 70.8999 189.509 71.6922L190.352 71.5952C190.446 71.5844 190.54 71.613 190.6 71.6714C191.201 72.2421 191.627 72.5062 192.378 72.7633C192.562 72.7238 193.062 72.5922 193.575 72.252C193.642 72.2075 193.731 72.1916 193.813 72.2075C193.897 72.2233 193.966 72.2698 194 72.3331L195.255 74.6277C195.313 74.7336 195.259 74.8572 195.132 74.9106L193.994 75.3903V75.3923Z" fill="black"/>
<path d="M193.748 72.6426C193.673 72.6426 193.599 72.6178 193.545 72.5704C193.444 72.4804 193.453 72.3409 193.565 72.2598L193.935 71.9928C194.047 71.9117 194.22 71.9186 194.322 72.0086C194.423 72.0986 194.414 72.238 194.302 72.3191L193.932 72.5862C193.88 72.6238 193.814 72.6426 193.748 72.6426Z" fill="black"/>
<path d="M85.5901 42.9952L73.5635 65.3453L84.1974 62.5284L90.0653 70.2006L97.2802 46.3254L85.5901 42.9952Z" stroke="white" stroke-miterlimit="10"/>
<path d="M90.0639 70.4199C89.9702 70.4199 89.8815 70.3814 89.831 70.3151L84.0765 62.7922L73.6484 65.5537C73.5461 65.5804 73.4339 65.5577 73.36 65.4934C73.2873 65.4291 73.2676 65.3371 73.3107 65.258L85.3385 42.908C85.3952 42.8021 85.5456 42.7497 85.6812 42.7883L97.3713 46.1175C97.5032 46.1551 97.5796 46.2668 97.5463 46.3766L90.3301 70.2518C90.3042 70.3379 90.2155 70.4031 90.107 70.417C90.0923 70.419 90.0787 70.4199 90.0639 70.4199ZM84.1973 62.3086C84.2909 62.3086 84.3797 62.3472 84.4302 62.4134L89.953 69.6346L96.956 46.4656L85.7403 43.2709L74.0564 64.982L84.111 62.3185C84.1393 62.3106 84.1677 62.3076 84.1973 62.3076V62.3086Z" fill="black"/>
<path d="M96.1836 47.1538L104.413 70.5868L110.451 63.0155L121.031 65.9956L107.87 43.8167L96.1836 47.1538Z" stroke="white" stroke-miterlimit="10"/>
<path d="M104.413 70.8066C104.399 70.8066 104.386 70.8066 104.372 70.8047C104.266 70.7918 104.179 70.7305 104.149 70.6464L95.9197 47.2133C95.8802 47.1016 95.9554 46.9859 96.091 46.9463L107.777 43.6092C107.909 43.5716 108.056 43.6201 108.116 43.7219L121.277 65.9018C121.325 65.9819 121.308 66.0769 121.234 66.1432C121.16 66.2094 121.044 66.2332 120.939 66.2035L110.563 63.2808L104.642 70.7057C104.591 70.769 104.504 70.8066 104.411 70.8066H104.413ZM96.5162 47.2925L104.51 70.0559L110.219 62.897C110.288 62.811 110.421 62.7744 110.541 62.808L120.5 65.614L107.728 44.0899L96.5162 47.2915V47.2925Z" fill="black"/>
<path d="M120.097 37.2801L116.814 40.4778L118.329 44.441L113.766 46.3816L113.273 50.507L108.133 50.9036L105.717 54.5661L100.782 53.3496L96.7982 55.9864L92.8148 53.3496L87.8787 54.5661L85.4618 50.9026L80.3223 50.507L79.8293 46.3806L75.2667 44.441L76.7814 40.4778L73.498 37.2801L76.7814 34.0815L75.2667 30.1193L79.8293 28.1787L80.3223 24.0523L85.4618 23.6567L87.8787 19.9932L92.8148 21.2097L96.7982 18.5739L100.782 21.2097L105.717 19.9932L108.135 23.6567L113.273 24.0523L113.766 28.1787L118.329 30.1193L116.814 34.0815L120.097 37.2801Z" fill="black"/>
<path d="M96.6573 50.6384C105.769 50.6384 113.155 44.7082 113.155 37.3928C113.155 30.0774 105.769 24.1472 96.6573 24.1472C87.5456 24.1472 80.1592 30.0774 80.1592 37.3928C80.1592 44.7082 87.5456 50.6384 96.6573 50.6384Z" fill="white"/>
<path d="M96.6565 50.8591C87.4079 50.8591 79.8848 44.8188 79.8848 37.3939C79.8848 29.9689 87.4091 23.9286 96.6565 23.9286C105.904 23.9286 113.428 29.9689 113.428 37.3939C113.428 44.8188 105.904 50.8591 96.6565 50.8591ZM96.6565 24.3678C87.7098 24.3678 80.432 30.2112 80.432 37.3939C80.432 44.5765 87.7098 50.4199 96.6565 50.4199C105.603 50.4199 112.881 44.5765 112.881 37.3939C112.881 30.2112 105.603 24.3678 96.6565 24.3678Z" fill="black"/>
<path d="M95.8457 44.0941C95.6238 44.0941 95.4094 44.0219 95.2541 43.8924L88.9179 38.6087C88.6036 38.3466 88.6134 37.9293 88.9401 37.6761C89.2667 37.4238 89.7868 37.4318 90.1023 37.6939L95.7397 42.3949L103.846 32.9325C104.103 32.6328 104.615 32.5566 104.988 32.7623C105.362 32.9691 105.457 33.3795 105.2 33.6792L96.5235 43.8073C96.383 43.9705 96.16 44.0743 95.9135 44.0912C95.8913 44.0922 95.8691 44.0931 95.8457 44.0931V44.0941Z" fill="black"/>
<path d="M161.909 35.6988L158.899 36.0717L156.951 34.3744C156.532 34.0095 155.725 34.2023 155.585 34.7008L154.935 37.0192L152.133 38.036C151.53 38.2546 151.47 38.8994 152.031 39.1279L154.639 40.1882L154.856 42.5135C154.903 43.013 155.673 43.2187 156.158 42.8616L158.421 41.198L161.357 41.6184C161.988 41.7084 162.524 41.1911 162.264 40.7421L161.054 38.6541L162.651 36.588C162.995 36.1439 162.556 35.6177 161.908 35.6988H161.909Z" fill="black"/>
<path d="M173.722 30.5246L170.763 30.9954L168.771 29.3397C168.344 28.9837 167.554 29.2042 167.434 29.7126L166.882 32.0765L164.153 33.1912C163.567 33.4305 163.532 34.0853 164.095 34.2979L166.714 35.289L167.02 37.6331C167.085 38.1375 167.854 38.3215 168.322 37.9446L170.492 36.193L173.409 36.5273C174.037 36.5995 174.546 36.0585 174.271 35.6134L172.994 33.5393L174.491 31.401C174.813 30.941 174.359 30.4238 173.722 30.5246Z" fill="black"/>
<path d="M186.551 26.2056L183.621 26.5686L181.758 24.8071C181.357 24.4283 180.57 24.6211 180.426 25.1335L179.754 27.5171L177.016 28.5448C176.427 28.7653 176.358 29.43 176.899 29.6684L179.414 30.7791L179.585 33.1756C179.622 33.6909 180.366 33.9085 180.845 33.5435L183.069 31.8463L185.913 32.3003C186.524 32.3982 187.054 31.8681 186.809 31.4042L185.67 29.245L187.256 27.1294C187.597 26.6744 187.18 26.1295 186.55 26.2076L186.551 26.2056Z" fill="black"/>
<path d="M198.925 21.9901L196.017 22.451L194.064 20.7537C193.643 20.3888 192.867 20.6083 192.75 21.1246L192.204 23.5281L189.522 24.6467C188.945 24.8871 188.911 25.5527 189.463 25.7733L192.033 26.7979L192.33 29.1866C192.394 29.6999 193.148 29.8918 193.606 29.511L195.741 27.7405L198.605 28.0986C199.222 28.1757 199.722 27.6288 199.453 27.1728L198.202 25.0542L199.676 22.8862C199.993 22.4203 199.548 21.8902 198.923 21.9891L198.925 21.9901Z" fill="black"/>
</svg>
