<svg width="690" height="649" viewBox="0 0 690 649" fill="none" xmlns="http://www.w3.org/2000/svg">
<mask id="mask0_1_1914" style="mask-type:alpha" maskUnits="userSpaceOnUse" x="41" y="0" width="650" height="649">
<mask id="path-1-outside-1_1_1914" maskUnits="userSpaceOnUse" x="40.616" y="-0.5" width="650" height="650" fill="black">
<rect fill="white" x="40.616" y="-0.5" width="650" height="650"/>
<path d="M365.808 162.061L386.189 0.5L386.03 163.337L426.475 5.60362L406.093 167.165L465.964 15.6514L425.519 173.545L503.86 30.6432L443.831 182.157L539.528 50.2603L461.027 193.162L572.329 74.343L476.791 206.08L602.105 102.253L490.644 220.913L628.06 133.673L502.586 237.499L649.874 168.122L512.459 255.362L667.23 204.964L519.942 274.341L679.809 243.719L525.038 294.118L687.452 283.751L527.586 314.213L690 324.42L527.586 334.628L687.452 365.09L525.038 354.883L679.809 405.121L519.942 374.659L667.23 444.036L512.459 393.638L649.874 480.878L502.586 411.501L628.06 515.328L490.644 427.928L602.105 546.747L476.791 442.76L572.329 574.657L461.027 455.838L539.528 598.58L443.831 466.684L503.86 618.197L425.519 475.455L465.964 633.189L406.093 481.676L426.475 643.396L386.03 485.503L386.189 648.5L365.808 486.779L345.427 648.5L345.427 485.503L304.982 643.396L325.523 481.676L265.652 633.189L306.097 475.455L227.756 618.197L287.785 466.684L192.088 598.58L270.589 455.838L159.128 574.657L254.825 442.76L129.511 546.747L240.972 427.928L103.556 515.328L229.03 411.501L81.7419 480.878L219.157 393.638L64.3858 444.036L211.673 374.659L51.8067 405.121L206.578 354.883L44.1636 365.09L204.03 334.628L41.616 324.42L204.03 314.213L44.1636 283.751L206.578 294.118L51.8067 243.719L211.673 274.341L64.3858 204.964L219.157 255.362L81.7419 168.122L229.03 237.499L103.556 133.673L240.972 220.913L129.511 102.253L254.825 206.08L159.128 74.343L270.589 193.162L192.088 50.2603L287.785 182.157L227.756 30.6432L306.097 173.545L265.652 15.6514L325.523 167.165L304.982 5.60362L345.427 163.337V0.5L365.808 162.061Z"/>
</mask>
<path d="M365.808 162.061L386.189 0.5L386.03 163.337L426.475 5.60362L406.093 167.165L465.964 15.6514L425.519 173.545L503.86 30.6432L443.831 182.157L539.528 50.2603L461.027 193.162L572.329 74.343L476.791 206.08L602.105 102.253L490.644 220.913L628.06 133.673L502.586 237.499L649.874 168.122L512.459 255.362L667.23 204.964L519.942 274.341L679.809 243.719L525.038 294.118L687.452 283.751L527.586 314.213L690 324.42L527.586 334.628L687.452 365.09L525.038 354.883L679.809 405.121L519.942 374.659L667.23 444.036L512.459 393.638L649.874 480.878L502.586 411.501L628.06 515.328L490.644 427.928L602.105 546.747L476.791 442.76L572.329 574.657L461.027 455.838L539.528 598.58L443.831 466.684L503.86 618.197L425.519 475.455L465.964 633.189L406.093 481.676L426.475 643.396L386.03 485.503L386.189 648.5L365.808 486.779L345.427 648.5L345.427 485.503L304.982 643.396L325.523 481.676L265.652 633.189L306.097 475.455L227.756 618.197L287.785 466.684L192.088 598.58L270.589 455.838L159.128 574.657L254.825 442.76L129.511 546.747L240.972 427.928L103.556 515.328L229.03 411.501L81.7419 480.878L219.157 393.638L64.3858 444.036L211.673 374.659L51.8067 405.121L206.578 354.883L44.1636 365.09L204.03 334.628L41.616 324.42L204.03 314.213L44.1636 283.751L206.578 294.118L51.8067 243.719L211.673 274.341L64.3858 204.964L219.157 255.362L81.7419 168.122L229.03 237.499L103.556 133.673L240.972 220.913L129.511 102.253L254.825 206.08L159.128 74.343L270.589 193.162L192.088 50.2603L287.785 182.157L227.756 30.6432L306.097 173.545L265.652 15.6514L325.523 167.165L304.982 5.60362L345.427 163.337V0.5L365.808 162.061Z" stroke="black" stroke-width="2" stroke-miterlimit="10" mask="url(#path-1-outside-1_1_1914)"/>
</mask>
<g mask="url(#mask0_1_1914)">
<rect x="-783.937" y="-37.6172" width="1150.21" height="702.852" rx="45" fill="black"/>
</g>
<path d="M95.4972 470.596L141.1 495.5L95.4972 520.604L70.5502 566.21L45.6032 520.604L3.82558e-05 495.5L45.6032 470.596L70.5502 424.789L95.4972 470.596Z" fill="#9897AE"/>
<path d="M216.609 244.065L298.099 288.566L216.609 333.425L172.03 414.922L127.451 333.425L45.9617 288.566L127.451 244.065L172.03 162.211L216.609 244.065Z" fill="#191A23"/>
</svg>
