<svg width="601" height="515" viewBox="0 0 601 515" fill="none" xmlns="http://www.w3.org/2000/svg">
<g clip-path="url(#clip0_1_1567)">
<path d="M311.267 432.535L328.868 427.349L323.732 445L328.868 462.601L311.267 457.465L293.616 462.601L298.802 445L293.616 427.349L311.267 432.535Z" fill="black" stroke="white" stroke-miterlimit="10"/>
</g>
<g clip-path="url(#clip1_1_1567)">
<path d="M125.216 345.509L156.692 362.659L125.216 379.947L107.997 411.354L90.7781 379.947L59.3022 362.659L90.7781 345.509L107.997 313.964L125.216 345.509Z" fill="black" stroke="white" stroke-miterlimit="10"/>
</g>
<path d="M345.854 201.187C414.293 238.937 473.026 278.935 512.659 313.077C532.478 330.151 547.501 345.742 556.575 358.842C561.112 365.393 564.145 371.297 565.557 376.433C566.968 381.568 566.748 385.89 564.848 389.333C562.949 392.777 559.41 395.268 554.315 396.813C549.218 398.359 542.606 398.943 534.644 398.6C518.724 397.913 497.522 393.524 472.508 385.868C422.488 370.558 357.326 342.216 288.886 304.465C220.447 266.715 161.713 226.717 122.081 192.575C102.262 175.501 87.2394 159.91 78.1658 146.81C73.6284 140.259 70.5949 134.355 69.183 129.218C67.7719 124.084 67.9915 119.763 69.8908 116.319C71.7904 112.875 75.329 110.384 80.4243 108.839C85.5221 107.293 92.1348 106.709 100.096 107.052C116.016 107.739 137.218 112.128 162.231 119.784C212.252 135.094 277.415 163.436 345.854 201.187Z" stroke="black"/>
<path d="M325.624 237.861C394.063 275.611 452.796 315.609 492.429 349.751C512.248 366.825 527.271 382.416 536.344 395.516C540.881 402.066 543.914 407.971 545.326 413.107C546.737 418.241 546.517 422.563 544.618 426.007C542.718 429.451 539.18 431.942 534.085 433.487C528.987 435.033 522.375 435.617 514.414 435.274C498.493 434.587 477.292 430.198 452.278 422.542C402.257 407.232 337.095 378.89 268.656 341.139C200.217 303.389 141.483 263.391 101.85 229.249C82.031 212.175 67.0089 196.584 57.9353 183.484C53.398 176.933 50.3644 171.029 48.9526 165.892C47.5414 160.758 47.761 156.437 49.6604 152.993C51.56 149.549 55.0985 147.057 60.1938 145.512C65.2916 143.966 71.9043 143.383 79.8656 143.726C95.7859 144.413 116.987 148.802 142.001 156.458C192.021 171.768 257.184 200.11 325.624 237.861Z" stroke="black"/>
<path d="M305.395 274.535C373.834 312.285 432.567 352.283 472.2 386.425C492.019 403.499 507.042 419.09 516.116 432.19C520.653 438.741 523.686 444.645 525.098 449.782C526.509 454.916 526.289 459.238 524.389 462.682C522.49 466.125 518.951 468.616 513.856 470.161C508.759 471.707 502.147 472.292 494.185 471.948C478.265 471.261 457.063 466.872 432.049 459.216C382.029 443.906 316.867 415.564 248.427 377.814C179.988 340.063 121.254 300.065 81.6216 265.923C61.8025 248.849 46.7804 233.258 37.7068 220.158C33.1694 213.608 30.1359 207.703 28.724 202.566C27.3129 197.433 27.5325 193.111 29.4319 189.667C31.3315 186.223 34.87 183.732 39.9653 182.187C45.0631 180.641 51.6758 180.057 59.6371 180.4C75.5574 181.087 96.7587 185.476 121.772 193.132C171.793 208.442 236.956 236.784 305.395 274.535Z" stroke="black"/>
<circle cx="131.768" cy="104.5" r="15.5" fill="#9897AE"/>
<circle cx="421.268" cy="435" r="10" fill="#9897AE"/>
<circle cx="81.7684" cy="64.5" r="23.5" fill="black"/>
<path d="M306.241 383.59C299.937 385.744 292.732 381.475 290.226 374.071L251.227 259.81L274.016 252.015L313.054 366.433C315.559 373.758 312.505 381.435 306.241 383.59Z" fill="black"/>
<path d="M302.834 385C300.993 385 299.114 384.569 297.313 383.668C293.671 381.866 290.774 378.498 289.364 374.346L250.366 260.084C250.209 259.653 250.444 259.144 250.914 258.987L273.702 251.192C273.937 251.114 274.172 251.114 274.368 251.231C274.564 251.349 274.72 251.505 274.799 251.74L313.836 366.159C316.46 373.915 313.171 382.101 306.475 384.412C305.34 384.804 304.087 385 302.834 385ZM252.324 260.358L291.048 373.797C292.301 377.518 294.885 380.574 298.096 382.141C300.68 383.394 303.46 383.629 305.966 382.767C311.761 380.77 314.58 373.562 312.231 366.707L273.467 253.111L252.324 260.358Z" fill="black"/>
<path d="M269.982 153.382L196.253 205.988L167.552 235.798L156.275 255.736L156.236 255.892C154.004 259.339 155.296 267.291 159.486 275.399C163.597 283.39 169.392 288.953 173.464 289.266L173.347 289.344L195 291.695L235.525 285.231L321.549 254.443L428.482 272.775L429.226 272.814C402.366 267.8 366.108 231.88 339.757 181.076C313.444 130.31 305.065 80.1321 316.616 55.376H316.577L270.569 152.128L269.982 153.382Z" fill="#9897AE"/>
<path d="M446.998 270.603C473.425 256.873 468.315 194.629 435.583 131.577C402.852 68.5249 354.895 28.5414 328.467 42.2714C302.04 56.0013 307.15 118.245 339.881 181.297C372.612 244.349 420.57 284.333 446.998 270.603Z" fill="white"/>
<path d="M435.374 274.185C423.863 274.185 410.002 267.761 395.084 255.266C374.762 238.266 354.832 212.06 338.974 181.428C314.972 135.05 305.066 87.4964 313.758 60.2726C316.656 51.1849 321.511 44.8392 328.128 41.4313C341.284 34.6939 359.805 40.4129 380.322 57.5698C400.644 74.57 420.574 100.775 436.432 131.407C460.473 177.786 470.379 225.339 461.648 252.563C458.75 261.651 453.895 267.996 447.278 271.404C443.715 273.284 439.721 274.185 435.374 274.185ZM340.11 40.4129C336.077 40.4129 332.318 41.2355 328.951 42.9982C322.725 46.171 318.183 52.2033 315.442 60.8601C306.867 87.6922 316.734 134.737 340.54 180.723C372.961 243.279 420.495 283.312 446.534 269.955C452.759 266.782 457.301 260.75 460.042 252.093C468.617 225.261 458.75 178.216 434.944 132.23C406.713 77.782 367.088 40.4129 340.11 40.4129Z" fill="black"/>
<path d="M435.374 274.185C423.863 274.185 410.002 267.761 395.083 255.266C374.762 238.265 354.832 212.06 338.974 181.428C314.972 135.05 305.066 87.4964 313.758 60.2725C316.656 51.1849 321.511 44.8392 328.128 41.4313C336.938 36.8875 348.45 38.0234 361.41 44.6825C373.822 51.0674 387.252 62.3878 400.33 77.3903C400.644 77.7428 400.604 78.2912 400.252 78.6046C399.9 78.9179 399.351 78.8788 399.038 78.5262C372.491 48.0512 345.63 34.4197 328.95 42.9981C322.725 46.171 318.183 52.2033 315.442 60.8601C306.867 87.6922 316.734 134.737 340.54 180.723C368.732 235.132 408.396 272.54 435.335 272.54C439.368 272.54 443.127 271.717 446.494 269.955C452.72 266.782 457.262 260.75 460.003 252.093C468.578 225.261 458.711 178.216 434.904 132.23C427.817 118.52 419.83 105.633 411.255 93.9204C410.98 93.5287 411.059 92.9803 411.45 92.7061C411.842 92.4319 412.39 92.5103 412.664 92.902C421.317 104.692 429.305 117.658 436.471 131.446C460.473 177.785 470.379 225.339 461.647 252.563C458.75 261.651 453.895 267.996 447.277 271.404C443.714 273.284 439.72 274.185 435.374 274.185Z" fill="black"/>
<path d="M387.035 190.339C393.157 187.158 391.98 172.751 384.405 158.159C376.83 143.567 365.726 134.316 359.604 137.497C353.482 140.678 354.659 155.085 362.234 169.677C369.809 184.269 380.913 193.52 387.035 190.339Z" fill="#9897AE"/>
<path d="M384.356 191.848C377.621 191.848 368.224 183.152 361.45 170.03C355.811 159.14 353.501 147.937 355.576 141.474C356.32 139.202 357.534 137.596 359.218 136.734C365.874 133.327 377.268 142.61 385.178 157.848C390.816 168.737 393.126 179.94 391.051 186.403C390.307 188.675 389.093 190.281 387.41 191.143C386.47 191.613 385.452 191.848 384.356 191.848ZM362.272 137.714C361.45 137.714 360.667 137.87 360.001 138.223C358.709 138.889 357.769 140.142 357.182 141.983C355.263 148.016 357.495 158.749 362.938 169.246C370.142 183.152 380.988 192.514 386.587 189.615C387.879 188.949 388.819 187.696 389.407 185.855C391.325 179.783 389.054 169.09 383.651 158.592C377.308 146.41 368.224 137.714 362.272 137.714Z" fill="#9897AE"/>
<path d="M429.423 259.574C419.321 259.574 407.183 253.934 394.105 243.005C376.329 228.12 358.865 205.166 345.004 178.373C323.978 137.792 315.325 96.153 322.921 72.2979C325.466 64.307 329.734 58.7447 335.568 55.7286C348.959 48.8737 368.654 56.7862 389.641 77.4293C389.994 77.7818 389.994 78.2911 389.641 78.6436C389.289 78.9961 388.78 78.9961 388.428 78.6436C367.989 58.5489 348.998 50.7147 336.351 57.2562C330.948 60.0374 326.993 65.2471 324.565 72.8071C317.087 96.2314 325.701 137.361 346.531 177.59C371.16 225.182 405.812 257.851 429.384 257.851C432.908 257.851 436.158 257.107 439.134 255.618C444.537 252.837 448.492 247.627 450.919 240.067C458.398 216.643 449.784 175.513 428.953 135.285C422.649 123.142 415.601 111.743 408.005 101.441C407.731 101.049 407.809 100.501 408.201 100.227C408.592 99.9526 409.141 100.031 409.415 100.423C417.089 110.842 424.176 122.28 430.519 134.501C451.546 175.083 460.199 216.721 452.603 240.576C450.058 248.567 445.79 254.13 439.956 257.146C436.745 258.752 433.221 259.574 429.423 259.574Z" fill="black"/>
<path d="M195.04 292.517C195.001 292.517 194.961 292.517 194.961 292.517L173.309 290.167C173.191 290.167 173.074 290.128 172.956 290.05C168.492 289.345 162.854 283.704 158.743 275.791C154.357 267.448 153.065 259.3 155.454 255.462L155.493 255.344L166.77 235.367C166.809 235.289 166.848 235.249 166.887 235.21L195.588 205.401C195.627 205.362 195.666 205.323 195.705 205.284L269.239 152.795L315.755 54.9846C315.873 54.7887 316.029 54.632 316.264 54.5537C316.499 54.4753 316.734 54.4753 316.93 54.5929C317.361 54.7887 317.556 55.2979 317.361 55.7288C305.575 80.9941 314.894 131.211 340.501 180.645C366.148 230.157 401.897 266.821 429.423 271.874C429.854 271.953 430.167 272.344 430.128 272.814C430.089 273.245 429.697 273.559 429.266 273.598L428.522 273.559C428.483 273.559 428.444 273.559 428.405 273.559L321.668 255.266L235.839 285.976C235.8 285.976 235.722 286.015 235.683 286.015L195.157 292.478C195.118 292.517 195.079 292.517 195.04 292.517ZM173.935 288.522L195.04 290.794L235.37 284.331L321.354 253.581C321.511 253.542 321.629 253.503 321.785 253.542L417.872 269.994C391.912 258.595 361.567 224.947 339.053 181.468C316.695 138.301 306.71 94.4689 312.192 66.775L270.766 153.735C270.688 153.852 270.609 153.97 270.492 154.048L196.841 206.655L168.258 236.307L156.981 256.284C156.981 256.323 156.942 256.363 156.942 256.363C154.906 259.535 156.276 267.37 160.231 275.008C164.107 282.49 169.706 288.13 173.543 288.404C173.7 288.404 173.818 288.444 173.935 288.522Z" fill="black"/>
<path d="M270.099 153.069L316.576 55.337H316.615C305.064 80.093 313.483 130.271 339.756 181.037C366.107 231.881 402.365 267.8 429.304 272.736L428.56 272.697L321.784 254.404L319.317 253.973C306.905 251.779 290.342 235.641 278.478 212.608C266.301 188.988 264.147 165.447 269.551 154.244L270.099 153.069Z" fill="white"/>
<path d="M429.304 273.598C429.265 273.598 429.304 273.598 429.304 273.598L428.521 273.559C428.482 273.559 428.443 273.559 428.404 273.559L321.627 255.266L319.161 254.835C306.044 252.524 289.403 235.719 277.695 213.039C264.422 187.265 263.756 164.311 268.768 153.891L269.355 152.716L315.832 55.0236C315.95 54.8278 316.106 54.6711 316.341 54.5927C316.576 54.5144 316.811 54.5144 317.007 54.6319C317.438 54.8278 317.633 55.337 317.438 55.7679C305.652 81.0332 314.971 131.25 340.578 180.684C366.225 230.196 401.974 266.86 429.5 271.913C429.931 271.992 430.244 272.383 430.205 272.853C430.087 273.245 429.735 273.598 429.304 273.598ZM312.113 66.7749L270.882 153.46L270.295 154.635C265.322 164.977 266.771 188.087 279.222 212.217C290.695 234.466 306.866 250.918 319.474 253.111L321.941 253.542L417.832 269.994C391.872 258.595 361.526 224.947 339.012 181.468C316.655 138.301 306.67 94.4688 312.113 66.7749Z" fill="black"/>
<path d="M193.864 292.4C193.825 292.4 193.786 292.4 193.786 292.4L173.269 290.206C173.151 290.206 173.034 290.167 172.916 290.089C168.453 289.384 162.814 283.743 158.703 275.83C154.357 267.448 153.065 259.3 155.453 255.462L155.492 255.344L166.769 235.367C167.004 234.936 167.513 234.818 167.944 235.053C168.374 235.288 168.492 235.798 168.257 236.229L156.98 256.284C156.98 256.323 156.941 256.362 156.941 256.362C154.905 259.535 156.275 267.37 160.23 275.008C164.106 282.49 169.706 288.13 173.543 288.404C173.66 288.404 173.817 288.444 173.895 288.522L193.943 290.676C194.413 290.715 194.765 291.146 194.687 291.616C194.648 292.047 194.295 292.4 193.864 292.4Z" fill="black"/>
<path d="M195.235 291.538C188.578 291.068 179.259 281.628 172.485 268.584C165.32 254.757 163.636 240.459 168.022 235.367L156.314 255.736L156.236 255.893C154.004 259.34 155.296 267.291 159.486 275.4C163.597 283.391 169.392 288.953 173.464 289.266L173.347 289.345L195.235 291.538Z" fill="white"/>
<path d="M195.235 292.4C195.196 292.4 195.196 292.4 195.157 292.4C195 292.4 194.804 292.361 194.648 292.361L173.269 290.206C173.151 290.206 173.034 290.167 172.916 290.089C168.453 289.384 162.814 283.743 158.703 275.83C154.357 267.448 153.065 259.3 155.453 255.462L155.492 255.344L165.79 237.404C166.182 236.385 166.691 235.484 167.317 234.74C167.591 234.388 168.1 234.348 168.453 234.583C168.805 234.858 168.923 235.328 168.688 235.719L167.239 238.187C164.929 244.415 167.2 256.637 173.151 268.075C179.612 280.57 188.422 289.697 194.726 290.52L195.196 290.559C195.666 290.598 196.018 291.029 195.979 291.499C196.018 292.047 195.666 292.4 195.235 292.4ZM173.895 288.522L188.853 290.05C183.097 286.367 176.754 278.768 171.703 268.976C166.808 259.535 164.381 249.743 164.772 242.692L156.98 256.284C156.98 256.323 156.941 256.363 156.941 256.363C154.905 259.535 156.275 267.37 160.23 275.008C164.106 282.49 169.706 288.13 173.543 288.404C173.66 288.404 173.817 288.444 173.895 288.522Z" fill="black"/>
<path d="M234.076 285.388L235.799 285.035C226.48 286.994 211.758 272.892 201.382 252.876C190.771 232.429 188.774 212.021 196.291 205.988L195.313 206.968L168.1 235.249C163.636 240.263 165.281 254.639 172.485 268.544C179.416 281.941 189.244 291.499 195.939 291.459L234.076 285.388Z" fill="black"/>
<path d="M195.901 292.361C188.774 292.361 178.868 282.764 171.703 268.975C164.42 254.874 162.58 240.146 167.435 234.701L194.139 206.968C194.609 206.341 195.157 205.793 195.744 205.323C196.097 205.048 196.606 205.088 196.919 205.401C197.232 205.754 197.232 206.263 196.919 206.576L195.392 208.182C189.949 215.468 192.651 234.113 202.166 252.485C212.424 272.305 226.755 285.897 235.526 284.252L235.643 284.213C236.113 284.135 236.544 284.409 236.661 284.879C236.74 285.349 236.466 285.78 235.996 285.897C235.957 285.897 235.917 285.897 235.878 285.937L234.273 286.25H234.234L196.097 292.321C196.018 292.321 195.94 292.361 195.901 292.361ZM191.868 211.825L168.727 235.876C164.42 240.733 166.378 254.913 173.269 268.192C180.004 281.197 189.518 290.598 195.901 290.637L229.574 285.271C220.49 282.059 209.292 269.955 200.639 253.307C192.416 237.443 189.244 221.304 191.868 211.825Z" fill="black"/>
<path d="M359.609 137.479C353.462 140.612 354.363 155.145 362.194 169.638C375.311 193.885 385.765 191.025 386.979 190.594C387.018 190.594 387.018 190.634 386.979 190.634L364.465 208.77C357.847 199.486 351.544 189.145 345.749 177.981C340.228 167.288 335.568 156.633 331.888 146.292L359.609 137.479Z" fill="black"/>
<path d="M364.465 209.632C364.425 209.632 364.386 209.632 364.347 209.632C364.112 209.592 363.916 209.475 363.76 209.279C356.986 199.76 350.682 189.341 345.004 178.412C339.562 167.914 334.863 157.221 331.104 146.645C331.026 146.41 331.026 146.175 331.143 145.979C331.261 145.783 331.417 145.626 331.652 145.548L359.374 136.734C359.805 136.617 360.275 136.813 360.432 137.244C360.588 137.674 360.432 138.144 360.04 138.34C358.709 139.006 357.73 140.338 357.142 142.297C355.224 148.446 357.573 159.336 363.016 169.325C375.82 192.984 385.687 190.281 386.744 189.889C387.135 189.733 387.605 189.929 387.801 190.281C387.997 190.634 387.919 191.143 387.605 191.417L365.013 209.436C364.856 209.553 364.66 209.632 364.465 209.632ZM333.023 146.84C336.743 157.064 341.285 167.405 346.531 177.59C352.013 188.166 358.121 198.233 364.66 207.516L384.199 191.77C379.735 191.574 371.317 188.244 361.45 170.03C355.733 159.493 353.384 148.368 355.459 141.67C355.733 140.808 356.046 140.064 356.438 139.359L333.023 146.84Z" fill="black"/>
<path d="M475.455 81.5974C493.355 72.1937 500.278 50.1159 490.918 32.2853C481.559 14.4546 459.46 7.62318 441.56 17.0269C423.66 26.4306 416.737 48.5084 426.097 66.3391C435.456 84.1697 457.555 91.0011 475.455 81.5974Z" fill="black"/>
<path d="M441.836 41.2352C443.558 38.8849 446.104 37.4356 449.001 37.1223C451.194 36.8872 453.23 37.3573 455.148 38.5324C456.127 39.12 456.989 39.8642 457.811 40.7652C458.398 39.7075 459.103 38.7674 459.925 37.984C461.531 36.4172 463.449 35.5162 465.603 35.2812C468.5 34.9678 471.32 35.8296 473.512 37.749C475.666 39.6292 477.036 42.3712 477.389 45.4657C477.741 48.6385 476.88 51.6939 474.687 55.0626C472.729 58.0787 469.753 61.2124 466.308 64.8945C465.133 66.1479 463.802 67.5581 462.431 69.0466C462.079 69.4383 461.57 69.7125 461.022 69.7517C460.474 69.83 459.964 69.6733 459.495 69.36C457.811 68.1848 456.206 67.0881 454.796 66.1479C450.646 63.3276 447.043 60.899 444.459 58.3921C441.562 55.611 440.074 52.7906 439.721 49.6178C439.408 46.5233 440.152 43.5463 441.836 41.2352Z" fill="white"/>
<path d="M577.004 83.5924C590.108 70.4828 590.108 49.2279 577.004 36.1183C563.899 23.0088 542.653 23.0087 529.549 36.1183C516.444 49.2279 516.444 70.4828 529.549 83.5924C542.653 96.7019 563.899 96.7019 577.004 83.5924Z" fill="black"/>
<path d="M553.27 94.273C534.319 94.273 518.852 78.8397 518.852 59.8418C518.852 40.883 534.28 25.4105 553.27 25.4105C572.26 25.4105 587.687 40.8438 587.687 59.8418C587.687 78.8005 572.26 94.273 553.27 94.273ZM553.27 27.134C535.258 27.134 520.575 41.7839 520.575 59.8418C520.575 77.8604 535.219 92.5495 553.27 92.5495C571.281 92.5495 585.965 77.8996 585.965 59.8418C585.965 41.8231 571.32 27.134 553.27 27.134Z" fill="black"/>
<path d="M562.353 63.1713C560.474 63.1713 558.829 64.0723 557.733 65.4824L546.417 61.0561C546.417 60.8994 546.456 60.7819 546.456 60.6252C546.456 60.351 546.417 60.0768 546.378 59.8026L557.968 54.4362C559.025 55.6505 560.591 56.4339 562.353 56.4731C565.564 56.4731 568.227 53.8486 568.227 50.5974C568.227 47.3462 565.603 44.6826 562.353 44.6826C559.143 44.6826 556.48 47.3071 556.48 50.5583C556.48 50.8325 556.519 51.1067 556.558 51.3809L544.969 56.7473C543.911 55.533 542.345 54.7496 540.583 54.7104C537.372 54.7104 534.71 57.3348 534.71 60.586C534.71 63.8372 537.333 66.5009 540.583 66.5009C542.463 66.5009 544.107 65.5999 545.203 64.1898L556.519 68.6161C556.519 68.7728 556.48 68.8903 556.48 69.047C556.48 72.2982 559.104 74.9618 562.353 74.9618C565.564 74.9618 568.227 72.3373 568.227 69.0861C568.188 65.8349 565.564 63.2105 562.353 63.1713Z" fill="white"/>
<path d="M562.798 189.993C578.164 179.322 582.025 158.282 571.421 142.999C560.817 127.715 539.763 123.975 524.397 134.645C509.03 145.315 505.169 166.355 515.774 181.639C526.378 196.923 547.431 200.663 562.798 189.993Z" fill="black"/>
<path d="M535.143 178.373L530.209 151.619C529.974 150.248 531.227 149.112 532.558 149.465L561.729 157.73C563.217 158.161 563.569 160.08 562.356 161.02L538.079 179.509C537.022 180.371 535.417 179.783 535.143 178.373Z" fill="white"/>
<path d="M543.267 299.581C562.243 290.34 570.183 267.553 561.002 248.686C551.821 229.819 528.995 222.016 510.018 231.257C491.042 240.499 483.102 263.286 492.283 282.153C501.464 301.02 524.29 308.823 543.267 299.581Z" fill="#9897AE"/>
<path d="M526.449 304.347C522.377 304.347 518.226 303.72 514.193 302.349C504.326 299.059 496.339 292.165 491.718 282.842C487.098 273.558 486.393 263.021 489.721 253.15C496.613 232.821 518.775 221.735 539.174 228.512C549.042 231.802 557.029 238.696 561.65 248.019C566.27 257.302 566.975 267.839 563.646 277.71C558.086 294.006 542.777 304.347 526.449 304.347ZM526.84 228.277C511.218 228.277 496.574 238.148 491.288 253.738C488.116 263.178 488.782 273.245 493.206 282.098C497.631 290.989 505.266 297.609 514.702 300.743C534.202 307.206 555.385 296.63 561.963 277.201C565.134 267.761 564.469 257.694 560.044 248.841C555.62 239.95 547.984 233.33 538.548 230.196C534.672 228.864 530.717 228.277 526.84 228.277Z" fill="black"/>
<path d="M546.106 259.261C545.715 268.78 529.622 291.029 525.785 296.238C525.393 296.787 524.571 296.748 524.218 296.16C521.791 292.243 513.764 279.082 509.574 268.427C507.891 264.197 506.834 260.358 506.951 257.655C507.382 246.844 516.505 238.422 527.312 238.853C538.119 239.362 546.537 248.45 546.106 259.261Z" fill="black"/>
<path d="M532.861 264.826C536.363 261.323 536.363 255.644 532.861 252.141C529.36 248.638 523.682 248.638 520.181 252.141C516.679 255.644 516.679 261.323 520.181 264.826C523.682 268.329 529.36 268.329 532.861 264.826Z" fill="#9897AE"/>
<defs>
<clipPath id="clip0_1_1567">
<rect width="36" height="36" fill="white" transform="translate(293.268 427)"/>
</clipPath>
<clipPath id="clip1_1_1567">
<rect width="70.3259" height="70.3259" fill="white" transform="translate(107.997 313) rotate(45)"/>
</clipPath>
</defs>
</svg>
