<?xml version="1.0" encoding="utf-8"?>
<!-- Generator: Adobe Illustrator 28.0.0, SVG Export Plug-In . SVG Version: 6.00 Build 0)  -->
<svg version="1.1" id="Layer_1" xmlns="http://www.w3.org/2000/svg" xmlns:xlink="http://www.w3.org/1999/xlink" x="0px" y="0px"
	 viewBox="0 0 105.1 44.5" style="enable-background:new 0 0 105.1 44.5;" xml:space="preserve">
<style type="text/css">
	.st0{fill:#010101;}
	.st1{fill:#FFFFFF;}
	.st2{fill:none;}
	.st3{fill:#9897AD;}
</style>
<g>
	<g>
		<path class="st0" d="M21.7,26.7c-0.5,0-1.1-0.1-1.6-0.2c-0.5-0.1-1-0.3-1.5-0.5c0.5,0.2,1,0.4,1.5,0.5S21.1,26.7,21.7,26.7
			c0.5,0,1.1,0,1.6-0.2c0.7-0.2,1.3-0.4,1.9-0.8c-0.6,0.3-1.2,0.6-1.9,0.8C22.8,26.7,22.2,26.7,21.7,26.7z M26.2,30.4
			C26.2,30.4,26.2,30.4,26.2,30.4L26.2,30.4C26.2,30.4,26.2,30.4,26.2,30.4c0.5-0.2,0.9-0.4,1.4-0.7C27.1,30,26.6,30.2,26.2,30.4z"
			/>
		<path class="st1" d="M33.1,8.5H21.7c-6.3,0-11.4,5.1-11.4,11.4c0,2.5,0.8,4.7,2.1,6.6c0.2,0.3,0.5,0.6,0.7,0.9
			c0.2,0.3,0.5,0.6,0.8,0.9c0.6,0.5,1.2,1,1.9,1.4c0.4,0.3,0.9,0.5,1.3,0.7h0c0,0,0,0,0,0c1.4,0.6,2.9,0.9,4.5,0.9
			c1.6,0,3.1-0.3,4.5-0.9c0,0,0,0,0,0c0.5-0.2,0.9-0.4,1.4-0.7c0.3-0.2,0.7-0.4,1-0.7c0.3-0.2,0.6-0.5,0.9-0.8
			c0.3-0.3,0.6-0.6,0.8-0.9c0.3-0.3,0.5-0.6,0.7-0.9v0c1.3-1.9,2.1-4.1,2.1-6.6c0-2.6-0.8-4.9-2.2-6.8h2.2V8.5z M27.5,23.4
			L27.5,23.4c-0.2,0.4-0.5,0.8-0.8,1.1c-0.1,0.1-0.2,0.2-0.3,0.4c-0.1,0.1-0.2,0.2-0.4,0.3c-0.3,0.2-0.5,0.4-0.8,0.6
			c-0.6,0.4-1.2,0.6-1.9,0.8c-0.5,0.1-1.1,0.2-1.6,0.2s-1.1-0.1-1.6-0.2s-1-0.3-1.5-0.5c-0.2-0.1-0.3-0.2-0.5-0.2
			c-1-0.6-1.8-1.4-2.4-2.4c-0.6-1-0.9-2.2-0.9-3.4c0-3.8,3-6.8,6.8-6.8c3.8,0,6.8,3,6.8,6.8C28.5,21.2,28.1,22.4,27.5,23.4z"/>
		<path class="st2" d="M28.5,19.9c0,1.2-0.3,2.4-0.9,3.4v0c-0.2,0.4-0.5,0.8-0.8,1.1c-0.1,0.1-0.2,0.2-0.3,0.4
			c-0.1,0.1-0.2,0.2-0.4,0.3c-0.3,0.2-0.5,0.4-0.8,0.6c-0.6,0.3-1.2,0.6-1.9,0.8c-0.5,0.1-1.1,0.2-1.6,0.2s-1.1-0.1-1.6-0.2
			c-0.5-0.1-1-0.3-1.5-0.5c-0.2-0.1-0.3-0.2-0.5-0.2c-1-0.6-1.8-1.4-2.4-2.4c-0.6-1-0.9-2.2-0.9-3.4c0-3.8,3-6.8,6.8-6.8
			C25.4,13.1,28.5,16.2,28.5,19.9z"/>
		<path class="st2" d="M28.5,19.9c0,1.2-0.3,2.4-0.9,3.4v0c-0.2,0.4-0.5,0.8-0.8,1.1c-0.1,0.1-0.2,0.2-0.3,0.4
			c-0.1,0.1-0.2,0.2-0.4,0.3c-0.3,0.2-0.5,0.4-0.8,0.6c-0.6,0.3-1.2,0.6-1.9,0.8c-0.5,0.1-1.1,0.2-1.6,0.2s-1.1-0.1-1.6-0.2
			c-0.5-0.1-1-0.3-1.5-0.5c-0.2-0.1-0.3-0.2-0.5-0.2c-1-0.6-1.8-1.4-2.4-2.4c-0.6-1-0.9-2.2-0.9-3.4c0-3.8,3-6.8,6.8-6.8
			C25.4,13.1,28.5,16.2,28.5,19.9z"/>
	</g>
	<g>
		<path class="st0" d="M39.5,17.3c0.3-0.6,0.6-1.2,1-1.7C40.1,16.1,39.7,16.7,39.5,17.3z M45.7,13.1c-1.6,0-3.1,0.6-4.3,1.6
			C42.6,13.7,44.1,13.2,45.7,13.1c1.6,0,3.1,0.6,4.3,1.6C48.9,13.7,47.4,13.1,45.7,13.1z M51,15.6c0.4,0.5,0.8,1.1,1,1.7
			C51.7,16.7,51.4,16.1,51,15.6z"/>
		<path class="st1" d="M45.7,8.5c-6.3,0-11.4,5.1-11.4,11.4s5.1,11.4,11.4,11.4c6.3,0,11.4-5.1,11.4-11.4C57.1,13.6,52,8.5,45.7,8.5
			z M52.2,22c-0.1,0.4-0.3,0.8-0.5,1.2c-0.3,0.6-0.7,1.1-1.2,1.6c-0.2,0.2-0.3,0.3-0.5,0.4c-0.5,0.4-1.1,0.8-1.7,1c0,0,0,0,0,0
			c-0.8,0.3-1.7,0.5-2.6,0.5c-0.9,0-1.8-0.2-2.6-0.5c0,0,0,0,0,0c-0.6-0.2-1.2-0.6-1.7-1c-0.2-0.1-0.3-0.3-0.5-0.4
			c-1.2-1.2-2-2.9-2-4.8c0-0.9,0.2-1.8,0.5-2.6c0.3-0.6,0.6-1.2,1-1.7c0.1-0.2,0.3-0.3,0.4-0.5c0.2-0.1,0.3-0.3,0.5-0.4
			c1.2-1,2.7-1.6,4.3-1.6c1.6,0,3.2,0.6,4.3,1.6c0.2,0.1,0.3,0.3,0.5,0.4c0.2,0.2,0.3,0.3,0.4,0.5c0.4,0.5,0.8,1.1,1,1.7
			c0.3,0.8,0.5,1.7,0.5,2.6C52.5,20.6,52.4,21.3,52.2,22z"/>
		<path class="st2" d="M39.5,17.3c0.3-0.6,0.6-1.2,1-1.7C40.1,16.1,39.7,16.7,39.5,17.3z"/>
		<path class="st2" d="M45.7,13.1c1.6,0,3.2,0.6,4.3,1.6C48.9,13.7,47.4,13.2,45.7,13.1c-1.6,0-3.1,0.6-4.3,1.6
			C42.6,13.7,44.1,13.1,45.7,13.1z"/>
		<path class="st2" d="M52,17.3c-0.3-0.6-0.6-1.2-1-1.7C51.4,16.1,51.7,16.7,52,17.3z"/>
		<path class="st2" d="M52.5,19.9c0,0.7-0.1,1.4-0.3,2c-0.1,0.4-0.3,0.8-0.5,1.2c-0.3,0.6-0.7,1.1-1.2,1.6c-0.2,0.2-0.3,0.3-0.5,0.4
			c-0.5,0.4-1.1,0.8-1.7,1c0,0,0,0,0,0c-0.8,0.3-1.7,0.5-2.6,0.5c-0.9,0-1.8-0.2-2.6-0.5c0,0,0,0,0,0c-0.6-0.3-1.2-0.6-1.7-1
			c-0.2-0.1-0.3-0.3-0.5-0.4c-1.2-1.2-2-2.9-2-4.8c0-0.9,0.2-1.8,0.5-2.6c0.3-0.6,0.6-1.2,1-1.7c0.1-0.2,0.3-0.3,0.4-0.5
			c0.2-0.1,0.3-0.3,0.5-0.4c1.2-1,2.7-1.5,4.3-1.5c1.6,0,3.1,0.6,4.3,1.5c0.2,0.1,0.3,0.3,0.5,0.4c0.2,0.2,0.3,0.3,0.4,0.5
			c0.4,0.5,0.8,1.1,1,1.7C52.3,18.1,52.5,19,52.5,19.9z"/>
		<path class="st2" d="M39.5,17.3c0.3-0.6,0.6-1.2,1-1.7C40.1,16.1,39.7,16.7,39.5,17.3z"/>
		<path class="st2" d="M45.7,13.1c1.6,0,3.2,0.6,4.3,1.6C48.9,13.7,47.4,13.2,45.7,13.1c-1.6,0-3.1,0.6-4.3,1.6
			C42.6,13.7,44.1,13.1,45.7,13.1z"/>
		<path class="st2" d="M52,17.3c-0.3-0.6-0.6-1.2-1-1.7C51.4,16.1,51.7,16.7,52,17.3z"/>
	</g>
	<g>
		<path class="st0" d="M63.6,17.3c0.3-0.6,0.6-1.2,1-1.7C64.2,16.1,63.9,16.7,63.6,17.3z M69.9,13.1c-1.6,0-3.1,0.6-4.3,1.6
			C66.7,13.7,68.2,13.2,69.9,13.1c1.6,0,3.1,0.6,4.3,1.6C73,13.7,71.5,13.1,69.9,13.1z M75.1,15.6c0.4,0.5,0.8,1.1,1,1.7
			C75.9,16.7,75.5,16.1,75.1,15.6z"/>
		<path class="st1" d="M69.9,8.5c-6.3,0-11.4,5.1-11.4,11.4s5.1,11.4,11.4,11.4c6.3,0,11.4-5.1,11.4-11.4
			C81.3,13.6,76.2,8.5,69.9,8.5z M74.7,24.7c-0.6,0.6-1.3,1.1-2.2,1.5c-0.8,0.3-1.7,0.5-2.6,0.5s-1.8-0.2-2.6-0.5c0,0,0,0,0,0
			c-0.6-0.2-1.2-0.6-1.7-1c-0.2-0.1-0.3-0.3-0.5-0.4c-1.2-1.2-2-2.9-2-4.8c0-0.9,0.2-1.8,0.5-2.6c0.3-0.6,0.6-1.2,1-1.7
			c0.1-0.2,0.3-0.3,0.4-0.5c0.2-0.1,0.3-0.3,0.5-0.4c1.2-1,2.7-1.6,4.3-1.6s3.2,0.6,4.3,1.6c0.2,0.1,0.3,0.3,0.5,0.4
			c0.2,0.2,0.3,0.3,0.4,0.5c0.4,0.5,0.8,1.1,1,1.7c0.3,0.8,0.5,1.7,0.5,2.6C76.7,21.8,75.9,23.5,74.7,24.7z"/>
		<path class="st2" d="M63.6,17.3c0.3-0.6,0.6-1.2,1-1.7C64.2,16.1,63.9,16.7,63.6,17.3z"/>
		<path class="st2" d="M69.9,13.1c1.6,0,3.2,0.6,4.3,1.6C73,13.7,71.5,13.2,69.9,13.1c-1.6,0-3.1,0.6-4.3,1.6
			C66.7,13.7,68.2,13.1,69.9,13.1z"/>
		<path class="st2" d="M76.1,17.3c-0.3-0.6-0.6-1.2-1-1.7C75.5,16.1,75.9,16.7,76.1,17.3z"/>
		<path class="st2" d="M76.7,19.9c0,1.9-0.8,3.6-2,4.8c-0.6,0.6-1.3,1.1-2.2,1.5c-0.8,0.3-1.7,0.5-2.6,0.5s-1.8-0.2-2.6-0.5
			c0,0,0,0,0,0c-0.6-0.3-1.2-0.6-1.7-1c-0.2-0.1-0.3-0.3-0.5-0.4c-1.2-1.2-2-2.9-2-4.8c0-0.9,0.2-1.8,0.5-2.6c0.3-0.6,0.6-1.2,1-1.7
			c0.1-0.2,0.3-0.3,0.4-0.5c0.2-0.1,0.3-0.3,0.5-0.4c1.2-1,2.7-1.5,4.3-1.5s3.1,0.6,4.3,1.5c0.2,0.1,0.3,0.3,0.5,0.4
			c0.2,0.2,0.3,0.3,0.4,0.5c0.4,0.5,0.8,1.1,1,1.7C76.5,18.1,76.7,19,76.7,19.9z"/>
		<path class="st2" d="M63.6,17.3c0.3-0.6,0.6-1.2,1-1.7C64.2,16.1,63.9,16.7,63.6,17.3z"/>
		<path class="st2" d="M69.9,13.1c1.6,0,3.2,0.6,4.3,1.6C73,13.7,71.5,13.2,69.9,13.1c-1.6,0-3.1,0.6-4.3,1.6
			C66.7,13.7,68.2,13.1,69.9,13.1z"/>
		<path class="st2" d="M76.1,17.3c-0.3-0.6-0.6-1.2-1-1.7C75.5,16.1,75.9,16.7,76.1,17.3z"/>
	</g>
	<g>
		<path class="st0" d="M87.6,17.3c0.3-0.6,0.6-1.2,1-1.7C88.2,16.1,87.8,16.7,87.6,17.3z M93.8,13.1c-1.7,0-3.2,0.6-4.3,1.6
			C90.7,13.7,92.2,13.2,93.8,13.1c1.6,0,3.1,0.6,4.3,1.6C97,13.7,95.5,13.1,93.8,13.1z M99.1,15.6c0.4,0.5,0.8,1.1,1,1.7
			C99.8,16.7,99.5,16.1,99.1,15.6z"/>
		<path class="st1" d="M100.6-0.1v10.9c-1.9-1.4-4.2-2.2-6.8-2.2c-6.3,0-11.4,5.1-11.4,11.4s5.1,11.4,11.4,11.4
			c2.5,0,4.9-0.8,6.8-2.2v2.2h4.6V-0.1H100.6z M100.6,20c0,1.9-0.8,3.6-2,4.8c-0.6,0.6-1.3,1.1-2.2,1.5c-0.8,0.3-1.7,0.5-2.6,0.5
			s-1.8-0.2-2.6-0.5c0,0,0,0,0,0c-0.6-0.2-1.2-0.6-1.7-1c-0.2-0.1-0.3-0.3-0.5-0.4c-1.2-1.2-2-2.9-2-4.8c0-0.9,0.2-1.8,0.5-2.6
			c0.3-0.6,0.6-1.2,1-1.7c0.1-0.2,0.3-0.3,0.4-0.5c0.1-0.1,0.3-0.3,0.5-0.4c1.2-1,2.7-1.6,4.3-1.6c1.6,0,3.1,0.6,4.3,1.6
			c0.2,0.1,0.3,0.3,0.5,0.4c0.2,0.2,0.3,0.3,0.4,0.5c0.4,0.5,0.8,1.1,1,1.7C100.4,18.1,100.6,19,100.6,20L100.6,20z"/>
		<path class="st2" d="M87.6,17.3c0.3-0.6,0.6-1.2,1-1.7C88.2,16.1,87.8,16.7,87.6,17.3z"/>
		<path class="st2" d="M93.8,13.1c1.6,0,3.1,0.6,4.3,1.6C97,13.7,95.5,13.2,93.8,13.1c-1.6,0-3.1,0.6-4.3,1.6
			C90.7,13.7,92.2,13.1,93.8,13.1z"/>
		<path class="st2" d="M100.1,17.3c-0.3-0.6-0.6-1.2-1-1.7C99.5,16.1,99.8,16.7,100.1,17.3z"/>
		<path class="st2" d="M100.6,19.9L100.6,19.9c0,1.9-0.8,3.6-2,4.8c-0.6,0.6-1.3,1.1-2.2,1.5c-0.8,0.3-1.7,0.5-2.6,0.5
			s-1.8-0.2-2.6-0.5c0,0,0,0,0,0c-0.6-0.3-1.2-0.6-1.7-1c-0.2-0.1-0.3-0.3-0.5-0.4c-1.2-1.2-2-2.9-2-4.8c0-0.9,0.2-1.8,0.5-2.6
			c0.3-0.6,0.6-1.2,1-1.7c0.1-0.2,0.3-0.3,0.4-0.5c0.1-0.1,0.3-0.3,0.5-0.4c1.2-1,2.7-1.5,4.3-1.5c1.6,0,3.1,0.6,4.3,1.5
			c0.2,0.1,0.3,0.3,0.5,0.4c0.2,0.2,0.3,0.3,0.4,0.5c0.4,0.5,0.8,1.1,1,1.7C100.4,18.1,100.6,19,100.6,19.9z"/>
		<path class="st2" d="M87.6,17.3c0.3-0.6,0.6-1.2,1-1.7C88.2,16.1,87.8,16.7,87.6,17.3z"/>
		<path class="st2" d="M93.8,13.1c1.6,0,3.1,0.6,4.3,1.6C97,13.7,95.5,13.2,93.8,13.1c-1.6,0-3.1,0.6-4.3,1.6
			C90.7,13.7,92.2,13.1,93.8,13.1z"/>
		<path class="st2" d="M100.1,17.3c-0.3-0.6-0.6-1.2-1-1.7C99.5,16.1,99.8,16.7,100.1,17.3z"/>
	</g>
	<g>
		<path class="st0" d="M15.1,34.8c0-0.1,0-0.1-0.1-0.2c0,0,0,0,0-0.1c0,0,0,0,0,0.1C15.1,34.7,15.1,34.7,15.1,34.8z"/>
		<path class="st2" d="M27.5,23.4c-0.2,0.4-0.5,0.8-0.8,1.1c-0.1,0.1-0.2,0.2-0.3,0.4c-0.1,0.1-0.2,0.2-0.4,0.3
			c-0.3,0.2-0.5,0.4-0.8,0.6c-0.6,0.4-1.2,0.6-1.9,0.8c-0.5,0.1-1.1,0.2-1.6,0.2s-1.1-0.1-1.6-0.2s-1-0.3-1.5-0.5
			c-0.2-0.1-0.3-0.2-0.5-0.2c-1-0.6-1.8-1.4-2.4-2.4c0.2-0.2,0.5-0.3,0.7-0.4c1.5-0.8,3.3-1.2,5.1-1.2c1.8,0,3.6,0.4,5.1,1.2
			C27,23.1,27.3,23.2,27.5,23.4z"/>
		<path class="st2" d="M33.1,33.1h-4.6c0,0.2,0,0.5,0,0.7c0,0.2,0,0.4-0.1,0.6c0,0.1,0,0.1,0,0.2c0,0.2-0.1,0.4-0.2,0.6
			c0,0.2-0.1,0.4-0.2,0.6c-0.1,0.2-0.1,0.3-0.2,0.5c0,0,0,0,0,0.1c-0.1,0.2-0.2,0.3-0.3,0.5c0,0,0,0,0,0c-0.1,0.1-0.2,0.2-0.2,0.4
			c0,0.1-0.1,0.1-0.1,0.2c-0.1,0.1-0.2,0.2-0.3,0.4c-0.1,0.1-0.3,0.3-0.4,0.4c-0.4,0.4-0.9,0.8-1.4,1c-0.1,0.1-0.3,0.2-0.4,0.2
			c0,0,0,0-0.1,0c-0.1,0.1-0.3,0.1-0.4,0.2c-0.1,0.1-0.3,0.1-0.4,0.2c-0.2,0-0.3,0.1-0.5,0.1c-0.1,0-0.2,0-0.2,0.1
			c-0.4,0.1-0.8,0.1-1.2,0.1s-0.8,0-1.2-0.1c-0.1,0-0.2,0-0.2-0.1c-0.2,0-0.3-0.1-0.5-0.1c-0.1,0-0.3-0.1-0.4-0.2
			c-0.1,0-0.2-0.1-0.4-0.2c-0.1-0.1-0.3-0.2-0.5-0.2c-0.2-0.1-0.4-0.2-0.5-0.3c-0.3-0.2-0.6-0.5-0.9-0.8c-0.1-0.1-0.3-0.3-0.4-0.4
			c-0.1-0.1-0.2-0.2-0.3-0.4c-0.1-0.1-0.2-0.3-0.3-0.4c-0.1-0.1-0.2-0.3-0.3-0.4c0,0,0,0,0-0.1c-0.1-0.2-0.2-0.3-0.2-0.5
			c0,0,0,0,0-0.1c-0.1-0.2-0.2-0.4-0.2-0.6c0,0,0,0,0,0c0-0.1-0.1-0.2-0.1-0.4c0-0.1,0-0.1,0-0.2c0,0,0,0,0-0.1
			c-0.1-0.2-0.1-0.4-0.1-0.7c0-0.2,0-0.5,0-0.7h-4.6c0-0.9,0.1-1.9,0.3-2.7c0.1-0.5,0.3-1,0.5-1.4c0.3-0.9,0.8-1.7,1.3-2.4
			c0.2,0.3,0.5,0.6,0.7,0.9c0.2,0.3,0.5,0.6,0.8,0.9c0.6,0.5,1.2,1,1.9,1.4c0.4,0.3,0.9,0.5,1.3,0.7h0c0,0,0,0,0,0
			c1.4,0.6,2.9,0.9,4.5,0.9c1.6,0,3.1-0.3,4.5-0.9c0,0,0,0,0,0c0.5-0.2,0.9-0.4,1.4-0.7c0.3-0.2,0.7-0.4,1-0.7
			c0.3-0.2,0.6-0.5,0.9-0.8c0.3-0.3,0.6-0.6,0.8-0.9c0.3-0.3,0.5-0.6,0.7-0.9c0.5,0.8,1,1.6,1.3,2.4c0.2,0.5,0.3,1,0.5,1.4
			C33,31.3,33.1,32.2,33.1,33.1z"/>
		<path class="st2" d="M21.7,26.7c-0.5,0-1.1-0.1-1.6-0.2c0.5-0.1,1-0.2,1.6-0.2c0.5,0,1.1,0.1,1.6,0.2
			C22.8,26.7,22.2,26.7,21.7,26.7z"/>
		<path class="st2" d="M28.5,33.1c0,0.2,0,0.5,0,0.7c0,0.2,0,0.4-0.1,0.6c0,0.1,0,0.1,0,0.2c0,0.2-0.1,0.4-0.2,0.6
			c0,0.2-0.1,0.4-0.2,0.6c-0.1,0.2-0.1,0.3-0.2,0.5c0,0,0,0,0,0.1c-0.1,0.2-0.2,0.3-0.3,0.5c0,0,0,0,0,0c-0.1,0.1-0.2,0.2-0.2,0.4
			c0,0.1-0.1,0.1-0.1,0.2c-0.1,0.1-0.2,0.2-0.3,0.4c-0.1,0.1-0.3,0.3-0.4,0.4c-0.4,0.4-0.9,0.8-1.4,1c-0.1,0.1-0.3,0.2-0.4,0.2
			c0,0,0,0-0.1,0c-0.1,0.1-0.3,0.1-0.4,0.2c-0.1,0.1-0.3,0.1-0.4,0.2c-0.2,0-0.3,0.1-0.5,0.1c-0.1,0-0.2,0-0.2,0.1
			c-0.4,0.1-0.8,0.1-1.2,0.1s-0.8,0-1.2-0.1c-0.1,0-0.2,0-0.2-0.1c-0.2,0-0.3-0.1-0.5-0.1c-0.1,0-0.3-0.1-0.4-0.2
			c-0.1,0-0.2-0.1-0.4-0.2c-0.1-0.1-0.3-0.2-0.5-0.2c-0.2-0.1-0.4-0.2-0.5-0.3c-0.3-0.2-0.6-0.5-0.9-0.8c-0.1-0.1-0.3-0.3-0.4-0.4
			c-0.1-0.1-0.2-0.2-0.3-0.4c-0.1-0.1-0.2-0.3-0.3-0.4c-0.1-0.1-0.2-0.3-0.3-0.4c0,0,0,0,0-0.1c-0.1-0.2-0.2-0.3-0.2-0.5
			c0,0,0,0,0-0.1c-0.1-0.2-0.2-0.4-0.2-0.6c0,0,0,0,0,0c0-0.1-0.1-0.2-0.1-0.4c0-0.1,0-0.1,0-0.2c0,0,0,0,0-0.1
			c-0.1-0.2-0.1-0.4-0.1-0.7c0-0.2,0-0.5,0-0.7c0-1,0.2-1.9,0.6-2.7c0.1-0.2,0.2-0.5,0.4-0.7c0.4,0.3,0.9,0.5,1.3,0.7h0c0,0,0,0,0,0
			c1.4,0.6,2.9,0.9,4.5,0.9c1.6,0,3.1-0.3,4.5-0.9c0,0,0,0,0,0c0.5-0.2,0.9-0.4,1.4-0.7c0.1,0.2,0.3,0.5,0.4,0.7
			C28.3,31.3,28.5,32.2,28.5,33.1z"/>
	</g>
	<path class="st3" d="M33.1,33.2c0,0.5,0,1-0.1,1.4c-0.7,5.6-5.5,10-11.3,10s-10.6-4.3-11.3-10c-0.1-0.5-0.1-1-0.1-1.4h4.6
		c0,0.2,0,0.5,0,0.7c0,0.2,0.1,0.5,0.1,0.7c0,0,0,0,0,0.1c0,0.1,0,0.1,0.1,0.2c0,0.1,0.1,0.2,0.1,0.4c0,0,0,0,0,0
		c0.1,0.2,0.1,0.4,0.2,0.6c0,0,0,0,0,0.1c0.1,0.2,0.1,0.3,0.2,0.5c0,0,0,0,0,0.1c0.1,0.2,0.2,0.3,0.3,0.4c0.1,0.1,0.2,0.3,0.3,0.4
		c0.1,0.1,0.2,0.2,0.3,0.4c0.1,0.2,0.2,0.3,0.4,0.4c0.3,0.3,0.6,0.5,0.9,0.8c0.2,0.1,0.3,0.2,0.5,0.3c0.1,0.1,0.3,0.2,0.5,0.2
		c0.1,0.1,0.2,0.1,0.4,0.2c0.1,0.1,0.3,0.1,0.4,0.2c0.2,0,0.3,0.1,0.5,0.1c0.1,0,0.2,0,0.2,0c0.4,0.1,0.8,0.1,1.2,0.1s0.9,0,1.2-0.1
		c0.1,0,0.2,0,0.2,0c0.2,0,0.3-0.1,0.5-0.1c0.1,0,0.3-0.1,0.4-0.2c0.1,0,0.3-0.1,0.4-0.2c0,0,0.1,0,0.1,0c0.1-0.1,0.3-0.1,0.4-0.2
		c0.5-0.3,1-0.6,1.4-1c0.1-0.1,0.3-0.3,0.4-0.4c0.1-0.1,0.2-0.2,0.3-0.4c0-0.1,0.1-0.1,0.1-0.2c0.1-0.1,0.2-0.2,0.2-0.4c0,0,0,0,0,0
		c0.1-0.2,0.2-0.3,0.3-0.5c0,0,0,0,0-0.1c0.1-0.2,0.2-0.3,0.2-0.5c0.1-0.2,0.1-0.4,0.2-0.5c0.1-0.2,0.1-0.4,0.1-0.6
		c0-0.1,0-0.1,0-0.2c0-0.2,0.1-0.4,0.1-0.6c0-0.2,0-0.5,0-0.7C28.5,33.2,33.1,33.2,33.1,33.2z"/>
	<path class="st2" d="M10.4,34.6L10.4,34.6l-0.1-1.4C10.3,33.6,10.3,34.1,10.4,34.6z"/>
	<path class="st2" d="M33.1,30.4v2.7h-4.6c0,0.2,0,0.5,0,0.7c0,0.2,0,0.4-0.1,0.6c0,0.1,0,0.1,0,0.2H15c0,0,0,0,0-0.1
		c-0.1-0.2-0.1-0.4-0.1-0.7c0-0.2,0-0.5,0-0.7h-4.6v-2.7h6.9c0,0,0,0,0,0c1.4,0.6,2.9,0.9,4.5,0.9c1.6,0,3.1-0.3,4.5-0.9
		c0,0,0,0,0,0H33.1z"/>
	<path class="st2" d="M33.1,33.2v1.4H33C33,34.1,33.1,33.6,33.1,33.2z"/>
</g>
<polygon class="st2" points="72.3,42.2 70,45.5 70,42.2 "/>
<polygon class="st2" points="72.5,41.9 72.3,42.2 70,45.5 69.8,45.9 68.9,45.3 70,43.7 71,42.2 71.6,41.3 "/>
<polygon class="st1" points="8.7,8.5 8.7,31.3 4.1,31.3 4.1,13.1 0,13.1 0,8.5 "/>
</svg>
