<svg width="14" height="16" viewBox="0 0 14 16" fill="none" xmlns="http://www.w3.org/2000/svg">
<g clip-path="url(#clip0_231_9304)">
<g clip-path="url(#clip1_231_9304)">
<g clip-path="url(#clip2_231_9304)">
<path fill-rule="evenodd" clip-rule="evenodd" d="M1.55566 6.33404V6.20504C1.55566 3.35804 3.86341 1.05029 6.71041 1.05029C9.55741 1.05029 11.8652 3.35804 11.8652 6.20504V6.33404C11.8652 8.92979 8.57866 12.8373 7.25416 14.3073C6.96241 14.6313 6.45841 14.6313 6.16666 14.3073C4.84216 12.8373 1.55566 8.92979 1.55566 6.33404Z" stroke="#A2A4A7" stroke-width="1.1" stroke-linecap="round" stroke-linejoin="round"/>
<path d="M5.20996 6.26652C5.20996 7.09527 5.88121 7.76652 6.70996 7.76652C7.53871 7.76652 8.20996 7.09527 8.20996 6.26652V6.23877C8.20996 5.41002 7.53871 4.73877 6.70996 4.73877C5.88121 4.73877 5.20996 5.41002 5.20996 6.23877" stroke="#A2A4A7" stroke-width="1.1" stroke-linecap="round" stroke-linejoin="round"/>
</g>
</g>
</g>
<defs>
<clipPath id="clip0_231_9304">
<rect width="13" height="15" fill="white" transform="translate(0.299805 0.300293)"/>
</clipPath>
<clipPath id="clip1_231_9304">
<rect width="13" height="15" fill="white" transform="translate(0.299805 0.300293)"/>
</clipPath>
<clipPath id="clip2_231_9304">
<rect width="13" height="15" fill="white" transform="translate(0.299805 0.300293)"/>
</clipPath>
</defs>
</svg>
