<svg width="16" height="16" viewBox="0 0 16 16" fill="none" xmlns="http://www.w3.org/2000/svg">
<g clip-path="url(#clip0_231_9298)">
<g clip-path="url(#clip1_231_9298)">
<g clip-path="url(#clip2_231_9298)">
<path fill-rule="evenodd" clip-rule="evenodd" d="M4.92627 14.4262C4.54596 14.6247 4.08588 14.5897 3.73993 14.336C3.39398 14.0824 3.22233 13.6541 3.29734 13.2317L3.90434 9.75246L1.34878 7.30344C1.0364 7.00555 0.921923 6.55524 1.0541 6.14433C1.18627 5.73342 1.54182 5.4343 1.96929 5.37439L5.51751 4.86718L7.11943 1.6716C7.30936 1.28835 7.70012 1.0459 8.12785 1.0459C8.55558 1.0459 8.94634 1.28835 9.13627 1.6716L10.7382 4.86718L14.2864 5.37439C14.7139 5.4343 15.0694 5.73342 15.2016 6.14433C15.3338 6.55524 15.2193 7.00555 14.9069 7.30344L12.3514 9.75246L12.9584 13.2324C13.0334 13.6548 12.8617 14.0831 12.5158 14.3368C12.1698 14.5905 11.7097 14.6254 11.3294 14.4269L8.12785 12.7725L4.92627 14.4262Z" stroke="#A2A4A7" stroke-width="1.1" stroke-linecap="round" stroke-linejoin="round"/>
</g>
</g>
</g>
<defs>
<clipPath id="clip0_231_9298">
<rect width="16" height="15" fill="white" transform="translate(0 0.300293)"/>
</clipPath>
<clipPath id="clip1_231_9298">
<rect width="16" height="15" fill="white" transform="translate(0 0.300293)"/>
</clipPath>
<clipPath id="clip2_231_9298">
<rect width="16" height="15" fill="white" transform="translate(0 0.300293)"/>
</clipPath>
</defs>
</svg>
