<?xml version="1.0" encoding="utf-8"?>
<!-- Generator: Adobe Illustrator 28.0.0, SVG Export Plug-In . SVG Version: 6.00 Build 0)  -->
<svg version="1.1" id="Layer_1" xmlns="http://www.w3.org/2000/svg" xmlns:xlink="http://www.w3.org/1999/xlink" x="0px" y="0px"
	 viewBox="0 0 612 792" style="enable-background:new 0 0 612 792;" xml:space="preserve">
<style type="text/css">
	.st0{fill:none;}
</style>
<g>
	<circle class="st0" cx="306" cy="298.38" r="99.75"/>
	<circle class="st0" cx="306" cy="298.38" r="99.75"/>
	<path d="M442.5,161.88H306c-75.39,0-136.5,61.11-136.5,136.5s61.11,136.5,136.5,136.5s136.5-61.11,136.5-136.5
		c0-39.37-16.66-74.84-43.32-99.75h43.32V161.88z M405.75,298.38c0,55.09-44.66,99.75-99.75,99.75s-99.75-44.66-99.75-99.75
		c0-55.09,44.66-99.75,99.75-99.75S405.75,243.28,405.75,298.38z"/>
	<path d="M442.5,467.37c0,75.39-61.11,136.5-136.5,136.5s-136.5-61.11-136.5-136.5h36.75c0,55.09,44.66,99.75,99.75,99.75
		s99.75-44.66,99.75-99.75H442.5z"/>
	<path class="st0" d="M442.5,530.38h-36.75c0,55.09-44.66,99.75-99.75,99.75s-99.75-44.66-99.75-99.75H169.5
		c0-18.03,3.5-35.25,9.85-51c10.89-27.04,30.2-49.79,54.68-65c14.94-9.29,31.8-15.78,49.86-18.72c7.2-1.17,14.58-1.78,22.11-1.78
		s14.91,0.61,22.11,1.78c18.06,2.94,34.92,9.43,49.86,18.72c24.48,15.21,43.79,37.96,54.68,65C439,495.12,442.5,512.34,442.5,530.38
		z"/>
	<path class="st0" d="M405.75,530.38c0,55.09-44.66,99.75-99.75,99.75s-99.75-44.66-99.75-99.75c0-18.63,5.11-36.08,14.02-51
		c13.76-23.11,36.61-40.18,63.62-46.28c7.11-1.62,14.51-2.47,22.11-2.47s15,0.85,22.11,2.47c27.01,6.1,49.86,23.17,63.62,46.28
		C400.64,494.29,405.75,511.74,405.75,530.38z"/>
	<rect x="113.5" y="479.38" class="st0" width="385" height="51"/>
</g>
</svg>
