<?xml version="1.0" encoding="utf-8"?>
<!-- Generator: Adobe Illustrator 28.0.0, SVG Export Plug-In . SVG Version: 6.00 Build 0)  -->
<svg version="1.1" id="Layer_1" xmlns="http://www.w3.org/2000/svg" xmlns:xlink="http://www.w3.org/1999/xlink" x="0px" y="0px"
	 viewBox="0 0 105.12 44.55" style="enable-background:new 0 0 105.12 44.55;" xml:space="preserve">
<style type="text/css">
	.st0{fill:#010101;}
	.st1{fill:none;}
	.st2{fill:#9897AD;}
</style>
<g>
	<g>
		<path class="st0" d="M33.08,8.53H21.67c-6.3,0-11.4,5.11-11.4,11.41c0,2.46,0.78,4.73,2.11,6.6c0.91,1.29,2.08,2.38,3.44,3.19
			c0.44,0.26,0.89,0.5,1.36,0.7h9c0.47-0.2,0.93-0.44,1.36-0.7c1.35-0.81,2.53-1.9,3.43-3.18c1.33-1.86,2.11-4.14,2.11-6.6
			c0-2.55-0.84-4.9-2.24-6.79h2.24V8.53z M28.47,19.94c0,1.25-0.34,2.42-0.93,3.42c-0.92,1.57-2.45,2.74-4.27,3.18
			c-0.51,0.13-1.05,0.19-1.6,0.19c-0.55,0-1.08-0.06-1.59-0.19c-1.82-0.44-3.35-1.6-4.27-3.17c-0.59-1.01-0.93-2.18-0.93-3.43
			c0-3.75,3.04-6.79,6.79-6.79C25.43,13.15,28.47,16.19,28.47,19.94z"/>
		<path class="st0" d="M26.17,30.42c-1.38,0.59-2.9,0.92-4.5,0.92s-3.12-0.33-4.5-0.92H26.17z"/>
		<path class="st1" d="M28.47,19.94c0,1.25-0.34,2.42-0.93,3.42c-0.92,1.57-2.45,2.74-4.27,3.18c-0.51,0.13-1.05,0.19-1.6,0.19
			c-0.55,0-1.08-0.06-1.59-0.19c-1.82-0.44-3.35-1.6-4.27-3.17c-0.59-1.01-0.93-2.18-0.93-3.43c0-3.75,3.04-6.79,6.79-6.79
			C25.43,13.15,28.47,16.19,28.47,19.94z"/>
		<path class="st1" d="M28.47,19.94c0,1.25-0.34,2.42-0.93,3.42c-0.92,1.57-2.45,2.74-4.27,3.18c-0.51,0.13-1.05,0.19-1.6,0.19
			c-0.55,0-1.08-0.06-1.59-0.19c-1.82-0.44-3.35-1.6-4.27-3.17c-0.59-1.01-0.93-2.18-0.93-3.43c0-3.75,3.04-6.79,6.79-6.79
			C25.43,13.15,28.47,16.19,28.47,19.94z"/>
	</g>
	<g>
		<path class="st0" d="M45.72,8.53c-6.3,0-11.4,5.11-11.4,11.41c0,6.3,5.11,11.4,11.4,11.4c6.3,0,11.41-5.11,11.41-11.4
			C57.13,13.64,52.03,8.53,45.72,8.53z M45.72,26.74c-3.75,0-6.79-3.04-6.79-6.79c0-3.75,3.04-6.79,6.79-6.79
			c3.75,0,6.79,3.04,6.79,6.79C52.52,23.69,49.48,26.74,45.72,26.74z"/>
		<circle class="st1" cx="45.72" cy="19.94" r="6.79"/>
		<circle class="st1" cx="45.72" cy="19.94" r="6.79"/>
	</g>
	<g>
		<path class="st0" d="M69.86,8.53c-6.3,0-11.4,5.11-11.4,11.41c0,6.3,5.11,11.4,11.4,11.4c6.3,0,11.41-5.11,11.41-11.4
			C81.27,13.64,76.16,8.53,69.86,8.53z M69.86,26.74c-3.75,0-6.79-3.04-6.79-6.79c0-3.75,3.04-6.79,6.79-6.79
			c3.75,0,6.79,3.04,6.79,6.79C76.65,23.69,73.61,26.74,69.86,26.74z"/>
		<circle class="st1" cx="69.86" cy="19.94" r="6.79"/>
		<circle class="st1" cx="69.86" cy="19.94" r="6.79"/>
	</g>
	<g>
		<path class="st0" d="M93.83,8.53c-6.3,0-11.41,5.11-11.41,11.41c0,6.3,5.11,11.4,11.41,11.4c6.3,0,11.41-5.11,11.41-11.4
			C105.23,13.64,100.13,8.53,93.83,8.53z M93.83,26.74c-3.75,0-6.79-3.04-6.79-6.79c0-3.75,3.04-6.79,6.79-6.79
			c3.75,0,6.79,3.04,6.79,6.79C100.62,23.69,97.58,26.74,93.83,26.74z"/>
		<circle class="st1" cx="93.83" cy="19.94" r="6.79"/>
		<circle class="st1" cx="93.83" cy="19.94" r="6.79"/>
	</g>
	<g>
		<path class="st0" d="M15.08,34.78c-0.02-0.06-0.04-0.13-0.05-0.19c0-0.02-0.01-0.05-0.01-0.07c0,0.02,0.01,0.04,0.02,0.07
			C15.05,34.65,15.06,34.72,15.08,34.78z"/>
		<path class="st1" d="M15.81,23.37c0.24-0.15,0.49-0.28,0.74-0.41c1.54-0.78,3.28-1.22,5.13-1.22c1.84,0,3.58,0.44,5.12,1.22
			c0.25,0.12,0.5,0.26,0.74,0.41c-0.92,1.57-2.45,2.74-4.27,3.18c-0.51,0.13-1.05,0.19-1.6,0.19c-0.55,0-1.08-0.06-1.59-0.19
			C18.26,26.11,16.73,24.94,15.81,23.37z"/>
		<path class="st1" d="M33.08,33.15h-4.61c0,0.23-0.01,0.46-0.04,0.69c-0.01,0.19-0.04,0.38-0.08,0.57
			c-0.01,0.06-0.03,0.12-0.04,0.18c-0.04,0.19-0.09,0.38-0.15,0.56c-0.05,0.19-0.12,0.37-0.19,0.55c-0.07,0.16-0.14,0.31-0.22,0.47
			c-0.01,0.02-0.02,0.04-0.03,0.07c-0.08,0.16-0.17,0.31-0.26,0.46c-0.01,0.01-0.01,0.02-0.01,0.02c-0.08,0.13-0.16,0.25-0.25,0.37
			c-0.04,0.06-0.08,0.11-0.13,0.17c-0.09,0.12-0.19,0.25-0.29,0.36c-0.13,0.15-0.26,0.28-0.39,0.41c-0.42,0.4-0.88,0.75-1.39,1.03
			c-0.14,0.08-0.27,0.16-0.42,0.22c-0.02,0.02-0.05,0.03-0.08,0.04c-0.13,0.06-0.26,0.12-0.4,0.17c-0.14,0.06-0.29,0.11-0.44,0.15
			c-0.16,0.05-0.33,0.1-0.49,0.13c-0.08,0.02-0.16,0.04-0.25,0.05c-0.4,0.08-0.82,0.12-1.25,0.12s-0.85-0.04-1.25-0.12
			c-0.09-0.01-0.17-0.03-0.25-0.05c-0.16-0.03-0.33-0.08-0.49-0.13c-0.15-0.04-0.29-0.09-0.44-0.15c-0.13-0.05-0.25-0.1-0.38-0.16
			c-0.15-0.07-0.31-0.15-0.46-0.23c-0.18-0.1-0.36-0.21-0.52-0.32c-0.33-0.22-0.64-0.47-0.92-0.75c-0.14-0.13-0.27-0.26-0.39-0.41
			c-0.11-0.11-0.21-0.24-0.29-0.36c-0.12-0.13-0.21-0.27-0.29-0.41c-0.1-0.14-0.19-0.28-0.27-0.43c-0.01-0.02-0.02-0.04-0.03-0.06
			c-0.09-0.17-0.18-0.34-0.25-0.52c-0.02-0.02-0.03-0.04-0.04-0.06c-0.07-0.2-0.15-0.4-0.21-0.61c0,0-0.01-0.01-0.01-0.02
			c-0.04-0.12-0.07-0.24-0.1-0.37c-0.02-0.06-0.04-0.13-0.05-0.19c0-0.02-0.01-0.05-0.01-0.07c-0.05-0.22-0.08-0.45-0.1-0.68
			c-0.03-0.23-0.04-0.46-0.04-0.69h-4.62c0-0.94,0.12-1.86,0.34-2.73c0.11-0.49,0.27-0.97,0.45-1.44c0.34-0.87,0.79-1.69,1.32-2.44
			c0.91,1.29,2.09,2.38,3.44,3.19c0.44,0.26,0.89,0.49,1.36,0.69h9c0.47-0.2,0.93-0.43,1.36-0.69c1.36-0.81,2.53-1.9,3.44-3.19
			c0.54,0.75,0.98,1.57,1.32,2.44c0.19,0.47,0.34,0.95,0.46,1.44C32.97,31.29,33.08,32.21,33.08,33.15z"/>
		<path class="st1" d="M21.67,26.73c-0.55,0-1.08-0.06-1.59-0.19c0.51-0.12,1.04-0.19,1.6-0.19c0.55,0,1.08,0.06,1.59,0.19
			C22.76,26.67,22.22,26.73,21.67,26.73z"/>
		<path class="st1" d="M28.47,33.15c0,0.23-0.01,0.46-0.04,0.69c-0.01,0.19-0.04,0.38-0.08,0.57c-0.01,0.06-0.03,0.12-0.04,0.18
			c-0.04,0.19-0.09,0.38-0.15,0.56c-0.05,0.19-0.12,0.37-0.19,0.55c-0.07,0.16-0.14,0.31-0.22,0.47c-0.01,0.02-0.02,0.04-0.03,0.07
			c-0.08,0.16-0.17,0.31-0.26,0.46c-0.01,0.01-0.01,0.02-0.01,0.02c-0.08,0.13-0.16,0.25-0.25,0.37c-0.04,0.06-0.08,0.11-0.13,0.17
			c-0.09,0.12-0.19,0.25-0.29,0.36c-0.13,0.15-0.26,0.28-0.39,0.41c-0.42,0.4-0.88,0.75-1.39,1.03c-0.14,0.08-0.27,0.16-0.42,0.22
			c-0.02,0.02-0.05,0.03-0.08,0.04c-0.13,0.06-0.26,0.12-0.4,0.17c-0.14,0.06-0.29,0.11-0.44,0.15c-0.16,0.05-0.33,0.1-0.49,0.13
			c-0.08,0.02-0.16,0.04-0.25,0.05c-0.4,0.08-0.82,0.12-1.25,0.12s-0.85-0.04-1.25-0.12c-0.09-0.01-0.17-0.03-0.25-0.05
			c-0.16-0.03-0.33-0.08-0.49-0.13c-0.15-0.04-0.29-0.09-0.44-0.15c-0.13-0.05-0.25-0.1-0.38-0.16c-0.15-0.07-0.31-0.15-0.46-0.23
			c-0.18-0.1-0.36-0.21-0.52-0.32c-0.33-0.22-0.64-0.47-0.92-0.75c-0.14-0.13-0.27-0.26-0.39-0.41c-0.11-0.11-0.21-0.24-0.29-0.36
			c-0.12-0.13-0.21-0.27-0.29-0.41c-0.1-0.14-0.19-0.28-0.27-0.43c-0.01-0.02-0.02-0.04-0.03-0.06c-0.09-0.17-0.18-0.34-0.25-0.52
			c-0.02-0.02-0.03-0.04-0.04-0.06c-0.07-0.2-0.15-0.4-0.21-0.61c0,0-0.01-0.01-0.01-0.02c-0.04-0.12-0.07-0.24-0.1-0.37
			c-0.02-0.06-0.04-0.13-0.05-0.19c0-0.02-0.01-0.05-0.01-0.07c-0.05-0.22-0.08-0.45-0.1-0.68c-0.03-0.23-0.04-0.46-0.04-0.69
			c0-0.97,0.2-1.89,0.57-2.73c0.1-0.24,0.23-0.47,0.36-0.69c0.44,0.26,0.89,0.49,1.36,0.69h9c0.47-0.2,0.93-0.43,1.36-0.69
			c0.14,0.22,0.26,0.45,0.37,0.69C28.26,31.26,28.47,32.18,28.47,33.15z"/>
	</g>
	<rect x="100.62" y="-0.1" class="st0" width="4.62" height="31.45"/>
	<path class="st2" d="M33.08,33.15c0,0.49-0.03,0.97-0.09,1.44c-0.71,5.62-5.51,9.96-11.32,9.96s-10.61-4.34-11.32-9.96
		c-0.06-0.47-0.09-0.95-0.09-1.44h4.62c0,0.23,0.01,0.46,0.04,0.69c0.02,0.23,0.05,0.46,0.1,0.68c0,0.02,0.01,0.05,0.01,0.07
		c0.01,0.06,0.03,0.13,0.05,0.19c0.03,0.13,0.06,0.25,0.1,0.37c0,0.01,0.01,0.02,0.01,0.02c0.06,0.21,0.14,0.41,0.21,0.61
		c0.01,0.02,0.02,0.04,0.04,0.06c0.07,0.18,0.15,0.35,0.25,0.52c0.01,0.02,0.02,0.04,0.03,0.06c0.08,0.15,0.17,0.29,0.27,0.43
		c0.08,0.14,0.17,0.28,0.29,0.41c0.08,0.12,0.18,0.25,0.29,0.36c0.12,0.15,0.25,0.28,0.39,0.41c0.28,0.28,0.59,0.53,0.92,0.75
		c0.16,0.11,0.34,0.22,0.52,0.32c0.15,0.08,0.31,0.16,0.46,0.23c0.13,0.06,0.25,0.11,0.38,0.16c0.15,0.06,0.29,0.11,0.44,0.15
		c0.16,0.05,0.33,0.1,0.49,0.13c0.08,0.02,0.16,0.04,0.25,0.05c0.4,0.08,0.82,0.12,1.25,0.12s0.85-0.04,1.25-0.12
		c0.09-0.01,0.17-0.03,0.25-0.05c0.16-0.03,0.33-0.08,0.49-0.13c0.15-0.04,0.3-0.09,0.44-0.15c0.14-0.05,0.27-0.11,0.4-0.17
		c0.03-0.01,0.06-0.02,0.08-0.04c0.15-0.06,0.28-0.14,0.42-0.22c0.51-0.28,0.97-0.63,1.39-1.03c0.14-0.13,0.27-0.26,0.39-0.41
		c0.11-0.11,0.21-0.23,0.29-0.36c0.05-0.06,0.09-0.11,0.13-0.17c0.09-0.12,0.17-0.24,0.25-0.37c0,0,0-0.01,0.01-0.02
		c0.1-0.15,0.19-0.3,0.26-0.46c0.01-0.03,0.02-0.05,0.03-0.07c0.09-0.15,0.16-0.31,0.22-0.47c0.08-0.18,0.14-0.36,0.19-0.55
		c0.06-0.18,0.11-0.37,0.15-0.56c0.01-0.06,0.03-0.12,0.04-0.18c0.04-0.19,0.07-0.38,0.08-0.57c0.03-0.23,0.04-0.46,0.04-0.69H33.08
		z"/>
	<path class="st1" d="M10.35,34.59h-0.09v-1.44C10.26,33.64,10.29,34.12,10.35,34.59z"/>
	<path class="st1" d="M33.08,30.42v2.73h-4.61c0,0.23-0.01,0.46-0.04,0.69c-0.01,0.19-0.04,0.38-0.08,0.57
		c-0.01,0.06-0.03,0.12-0.04,0.18H15.03c0-0.02-0.01-0.05-0.01-0.07c-0.05-0.22-0.08-0.45-0.1-0.68c-0.03-0.23-0.04-0.46-0.04-0.69
		h-4.62v-2.73H33.08z"/>
	<path class="st1" d="M33.08,33.15v1.44h-0.09C33.05,34.12,33.08,33.64,33.08,33.15z"/>
</g>
<polygon class="st1" points="72.27,42.2 70.01,45.51 70.01,42.2 "/>
<polygon class="st1" points="72.46,41.9 72.27,42.2 70.01,45.51 69.75,45.9 68.89,45.32 70.01,43.66 71.01,42.2 71.6,41.32 "/>
<rect x="4.11" y="8.53" width="4.62" height="22.81"/>
<rect x="1.8" y="6.73" transform="matrix(-1.836970e-16 1 -1 -1.836970e-16 14.9546 6.7317)" width="4.62" height="8.22"/>
</svg>
